<svg width="1440" height="284" viewBox="0 0 1440 284" fill="none" xmlns="http://www.w3.org/2000/svg">
<g opacity="0.4">
<path d="M-3.73643 -1.61465L1440.5 0.00278615L1439.71 0.553594L1036.49 283.313L399.64 282.598L399.409 282.436L-3.73643 -1.61465ZM1437.62 0.715053L-0.854462 -0.895962L400.486 281.886L1035.64 282.598L1437.62 0.715053Z" fill="url(#paint0_linear_1193_211)"/>
<path d="M69.0973 -0.993793L70.4484 -1.35458L432.537 282.1L431.189 282.46L69.0973 -0.993793Z" fill="url(#paint1_linear_1193_211)"/>
<path d="M141.147 -0.929444L142.533 -1.25881L464.356 282.151L462.971 282.48L141.147 -0.929444Z" fill="url(#paint2_linear_1193_211)"/>
<path d="M213.197 -0.865649L214.618 -1.16024L496.174 282.204L494.753 282.498L213.197 -0.865649Z" fill="url(#paint3_linear_1193_211)"/>
<path d="M285.248 -0.803362L286.704 -1.06077L527.993 282.257L526.537 282.514L285.248 -0.803362Z" fill="url(#paint4_linear_1193_211)"/>
<path d="M357.302 -0.742516L358.787 -0.96238L559.808 282.312L558.32 282.531L357.302 -0.742516Z" fill="url(#paint5_linear_1193_211)"/>
<path d="M429.354 -0.682851L430.866 -0.860428L591.619 282.368L590.107 282.545L429.354 -0.682851Z" fill="url(#paint6_linear_1193_211)"/>
<path d="M501.411 -0.623769L502.945 -0.758646L623.43 282.426L621.896 282.561L501.411 -0.623769Z" fill="url(#paint7_linear_1193_211)"/>
<path d="M573.471 -0.563392L575.02 -0.655274L655.238 282.483L653.69 282.573L573.471 -0.563392Z" fill="url(#paint8_linear_1193_211)"/>
<path d="M645.534 -0.50749L647.093 -0.550178L687.044 282.542L685.487 282.586L645.534 -0.50749Z" fill="url(#paint9_linear_1193_211)"/>
<path d="M719.159 -0.439681L717.597 -0.441448L717.277 282.607L718.838 282.609L719.159 -0.439681Z" fill="url(#paint10_linear_1193_211)"/>
<path d="M749.085 282.612L789.67 -0.391101L791.23 -0.343503L750.645 282.659L749.085 282.612Z" fill="url(#paint11_linear_1193_211)"/>
<path d="M780.89 282.622L861.742 -0.334494L863.291 -0.240987L782.438 282.718L780.89 282.622Z" fill="url(#paint12_linear_1193_211)"/>
<path d="M812.699 282.638L933.817 -0.275981L935.351 -0.135237L814.232 282.776L812.699 282.638Z" fill="url(#paint13_linear_1193_211)"/>
<path d="M844.509 282.652L1005.9 -0.215416L1007.41 -0.0338013L846.021 282.833L844.509 282.652Z" fill="url(#paint14_linear_1193_211)"/>
<path d="M876.324 282.667L1077.98 -0.155626L1079.46 0.0681894L877.807 282.889L876.324 282.667Z" fill="url(#paint15_linear_1193_211)"/>
<path d="M908.139 282.682L1150.06 -0.0942163L1151.51 0.167398L909.593 282.946L908.139 282.682Z" fill="url(#paint16_linear_1193_211)"/>
<path d="M939.955 282.701L1222.15 -0.0309276L1223.57 0.266515L941.378 282.999L939.955 282.701Z" fill="url(#paint17_linear_1193_211)"/>
<path d="M971.773 282.72L1294.23 0.0322808L1295.62 0.364586L973.158 283.05L971.773 282.72Z" fill="url(#paint18_linear_1193_211)"/>
<path d="M1003.59 282.739L1366.32 0.096553L1367.66 0.458848L1004.94 283.102L1003.59 282.739Z" fill="url(#paint19_linear_1193_211)"/>
<path d="M1045.68 275.879L390.408 275.138L390.407 275.854L1045.68 276.596L1045.68 275.879Z" fill="url(#paint20_linear_1193_211)"/>
<path d="M1055.95 268.658L380.207 267.894L380.206 268.61L1055.95 269.375L1055.95 268.658Z" fill="url(#paint21_linear_1193_211)"/>
<path d="M1066.83 261.046L369.291 260.257L369.291 260.973L1066.83 261.762L1066.83 261.046Z" fill="url(#paint22_linear_1193_211)"/>
<path d="M1078.49 252.865L357.698 252.049L357.697 252.765L1078.49 253.581L1078.49 252.865Z" fill="url(#paint23_linear_1193_211)"/>
<path d="M1090.91 244.157L345.27 243.314L345.27 244.03L1090.91 244.873L1090.91 244.157Z" fill="url(#paint24_linear_1193_211)"/>
<path d="M1104.23 234.817L331.967 233.943L331.967 234.659L1104.23 235.533L1104.23 234.817Z" fill="url(#paint25_linear_1193_211)"/>
<path d="M1118.54 224.853L317.679 223.807L317.678 224.523L1118.54 225.569L1118.54 224.853Z" fill="url(#paint26_linear_1193_211)"/>
<path d="M1133.95 213.985L302.289 213.044L302.289 213.76L1133.95 214.701L1133.95 213.985Z" fill="url(#paint27_linear_1193_211)"/>
<path d="M1150.61 202.29L285.688 201.312L285.687 202.028L1150.61 203.006L1150.61 202.29Z" fill="url(#paint28_linear_1193_211)"/>
<path d="M1168.62 189.672L267.671 188.652L267.67 189.369L1168.62 190.388L1168.62 189.672Z" fill="url(#paint29_linear_1193_211)"/>
<path d="M1188.24 175.893L248.125 174.83L248.124 175.546L1188.24 176.609L1188.24 175.893Z" fill="url(#paint30_linear_1193_211)"/>
<path d="M1209.61 160.913L226.774 159.801L226.773 160.517L1209.61 161.629L1209.61 160.913Z" fill="url(#paint31_linear_1193_211)"/>
<path d="M1233.01 144.517L203.385 143.352L203.384 144.068L1233.01 145.233L1233.01 144.517Z" fill="url(#paint32_linear_1193_211)"/>
<path d="M1258.77 126.456L177.672 125.233L177.671 125.949L1258.77 127.172L1258.77 126.456Z" fill="url(#paint33_linear_1193_211)"/>
<path d="M1287.24 106.495L149.252 105.208L149.251 105.924L1287.24 107.211L1287.24 106.495Z" fill="url(#paint34_linear_1193_211)"/>
<path d="M1318.86 84.3173L117.673 82.9583L117.672 83.6745L1318.86 85.0334L1318.86 84.3173Z" fill="url(#paint35_linear_1193_211)"/>
<path d="M1354.21 59.5305L82.3837 58.0917L82.3829 58.8078L1354.21 60.2467L1354.21 59.5305Z" fill="url(#paint36_linear_1193_211)"/>
<path d="M1393.98 31.6383L42.6882 30.1095L42.6874 30.8256L1393.98 32.3544L1393.98 31.6383Z" fill="url(#paint37_linear_1193_211)"/>
</g>
<defs>
<linearGradient id="paint0_linear_1193_211" x1="827.57" y1="222.674" x2="809.188" y2="109.606" gradientUnits="userSpaceOnUse">
<stop stop-color="white"/>
<stop offset="1" stop-color="#999999"/>
</linearGradient>
<linearGradient id="paint1_linear_1193_211" x1="867.527" y1="404.739" x2="690.235" y2="-179.5" gradientUnits="userSpaceOnUse">
<stop stop-color="white"/>
<stop offset="1" stop-color="#999999"/>
</linearGradient>
<linearGradient id="paint2_linear_1193_211" x1="881.452" y1="374.645" x2="750.613" y2="-158.486" gradientUnits="userSpaceOnUse">
<stop stop-color="white"/>
<stop offset="1" stop-color="#999999"/>
</linearGradient>
<linearGradient id="paint3_linear_1193_211" x1="898.08" y1="350.765" x2="800.84" y2="-137.219" gradientUnits="userSpaceOnUse">
<stop stop-color="white"/>
<stop offset="1" stop-color="#999999"/>
</linearGradient>
<linearGradient id="paint4_linear_1193_211" x1="918.362" y1="331.374" x2="845.838" y2="-117.149" gradientUnits="userSpaceOnUse">
<stop stop-color="white"/>
<stop offset="1" stop-color="#999999"/>
</linearGradient>
<linearGradient id="paint5_linear_1193_211" x1="943.658" y1="315.332" x2="889.616" y2="-98.7556" gradientUnits="userSpaceOnUse">
<stop stop-color="white"/>
<stop offset="1" stop-color="#999999"/>
</linearGradient>
<linearGradient id="paint6_linear_1193_211" x1="976.15" y1="301.872" x2="936.133" y2="-82.1336" gradientUnits="userSpaceOnUse">
<stop stop-color="white"/>
<stop offset="1" stop-color="#999999"/>
</linearGradient>
<linearGradient id="paint7_linear_1193_211" x1="1019.43" y1="290.45" x2="990.201" y2="-67.1555" gradientUnits="userSpaceOnUse">
<stop stop-color="white"/>
<stop offset="1" stop-color="#999999"/>
</linearGradient>
<linearGradient id="paint8_linear_1193_211" x1="1079.96" y1="280.714" x2="1059.14" y2="-53.6281" gradientUnits="userSpaceOnUse">
<stop stop-color="white"/>
<stop offset="1" stop-color="#999999"/>
</linearGradient>
<linearGradient id="paint9_linear_1193_211" x1="1170.75" y1="272.419" x2="1156.53" y2="-41.314" gradientUnits="userSpaceOnUse">
<stop stop-color="white"/>
<stop offset="1" stop-color="#999999"/>
</linearGradient>
<linearGradient id="paint10_linear_1193_211" x1="743.243" y1="262.626" x2="744.619" y2="10.9407" gradientUnits="userSpaceOnUse">
<stop stop-color="white"/>
<stop offset="1" stop-color="#999999"/>
</linearGradient>
<linearGradient id="paint11_linear_1193_211" x1="1624.14" y1="260.286" x2="1619.38" y2="-18.656" gradientUnits="userSpaceOnUse">
<stop stop-color="white"/>
<stop offset="1" stop-color="#999999"/>
</linearGradient>
<linearGradient id="paint12_linear_1193_211" x1="2529.91" y1="259.102" x2="2528.53" y2="-5.06688" gradientUnits="userSpaceOnUse">
<stop stop-color="white"/>
<stop offset="1" stop-color="#999999"/>
</linearGradient>
<linearGradient id="paint13_linear_1193_211" x1="24173.2" y1="371.851" x2="24174.3" y2="121.026" gradientUnits="userSpaceOnUse">
<stop stop-color="white"/>
<stop offset="1" stop-color="#999999"/>
</linearGradient>
<linearGradient id="paint14_linear_1193_211" x1="2402.48" y1="247.906" x2="2401.3" y2="9.17066" gradientUnits="userSpaceOnUse">
<stop stop-color="white"/>
<stop offset="1" stop-color="#999999"/>
</linearGradient>
<linearGradient id="paint15_linear_1193_211" x1="1591.29" y1="238.949" x2="1588.19" y2="11.226" gradientUnits="userSpaceOnUse">
<stop stop-color="white"/>
<stop offset="1" stop-color="#999999"/>
</linearGradient>
<linearGradient id="paint16_linear_1193_211" x1="1307.3" y1="233.271" x2="1302.6" y2="15.6167" gradientUnits="userSpaceOnUse">
<stop stop-color="white"/>
<stop offset="1" stop-color="#999999"/>
</linearGradient>
<linearGradient id="paint17_linear_1193_211" x1="1162.62" y1="228.699" x2="1156.61" y2="20.2873" gradientUnits="userSpaceOnUse">
<stop stop-color="white"/>
<stop offset="1" stop-color="#999999"/>
</linearGradient>
<linearGradient id="paint18_linear_1193_211" x1="1074.92" y1="224.742" x2="1067.81" y2="24.8392" gradientUnits="userSpaceOnUse">
<stop stop-color="white"/>
<stop offset="1" stop-color="#999999"/>
</linearGradient>
<linearGradient id="paint19_linear_1193_211" x1="1016.11" y1="221.215" x2="1008.1" y2="29.1693" gradientUnits="userSpaceOnUse">
<stop stop-color="white"/>
<stop offset="1" stop-color="#999999"/>
</linearGradient>
<linearGradient id="paint20_linear_1193_211" x1="750.683" y1="-5887.03" x2="1304.37" y2="-107216" gradientUnits="userSpaceOnUse">
<stop stop-color="white"/>
<stop offset="1" stop-color="#999999"/>
</linearGradient>
<linearGradient id="paint21_linear_1193_211" x1="734.429" y1="-2928.32" x2="1288.45" y2="-104320" gradientUnits="userSpaceOnUse">
<stop stop-color="white"/>
<stop offset="1" stop-color="#999999"/>
</linearGradient>
<linearGradient id="paint22_linear_1193_211" x1="717.374" y1="205.239" x2="1271.78" y2="-101255" gradientUnits="userSpaceOnUse">
<stop stop-color="white"/>
<stop offset="1" stop-color="#999999"/>
</linearGradient>
<linearGradient id="paint23_linear_1193_211" x1="698.951" y1="3566.71" x2="1253.6" y2="-97939.2" gradientUnits="userSpaceOnUse">
<stop stop-color="white"/>
<stop offset="1" stop-color="#999999"/>
</linearGradient>
<linearGradient id="paint24_linear_1193_211" x1="679.36" y1="7157.13" x2="1234.41" y2="-94421.6" gradientUnits="userSpaceOnUse">
<stop stop-color="white"/>
<stop offset="1" stop-color="#999999"/>
</linearGradient>
<linearGradient id="paint25_linear_1193_211" x1="658.307" y1="11009.8" x2="1213.77" y2="-90643.9" gradientUnits="userSpaceOnUse">
<stop stop-color="white"/>
<stop offset="1" stop-color="#999999"/>
</linearGradient>
<linearGradient id="paint26_linear_1193_211" x1="635.242" y1="15192.4" x2="1191.16" y2="-86544.6" gradientUnits="userSpaceOnUse">
<stop stop-color="white"/>
<stop offset="1" stop-color="#999999"/>
</linearGradient>
<linearGradient id="paint27_linear_1193_211" x1="611.237" y1="19625.8" x2="1167.61" y2="-82194.4" gradientUnits="userSpaceOnUse">
<stop stop-color="white"/>
<stop offset="1" stop-color="#999999"/>
</linearGradient>
<linearGradient id="paint28_linear_1193_211" x1="584.711" y1="24471.3" x2="1141.57" y2="-77439.5" gradientUnits="userSpaceOnUse">
<stop stop-color="white"/>
<stop offset="1" stop-color="#999999"/>
</linearGradient>
<linearGradient id="paint29_linear_1193_211" x1="556.072" y1="29718.5" x2="1113.55" y2="-72304.6" gradientUnits="userSpaceOnUse">
<stop stop-color="white"/>
<stop offset="1" stop-color="#999999"/>
</linearGradient>
<linearGradient id="paint30_linear_1193_211" x1="524.718" y1="35447.6" x2="1082.78" y2="-66681.7" gradientUnits="userSpaceOnUse">
<stop stop-color="white"/>
<stop offset="1" stop-color="#999999"/>
</linearGradient>
<linearGradient id="paint31_linear_1193_211" x1="490.566" y1="41700.1" x2="1049.3" y2="-60552" gradientUnits="userSpaceOnUse">
<stop stop-color="white"/>
<stop offset="1" stop-color="#999999"/>
</linearGradient>
<linearGradient id="paint32_linear_1193_211" x1="453.136" y1="48554.2" x2="1012.51" y2="-53815.5" gradientUnits="userSpaceOnUse">
<stop stop-color="white"/>
<stop offset="1" stop-color="#999999"/>
</linearGradient>
<linearGradient id="paint33_linear_1193_211" x1="411.705" y1="56135.7" x2="971.97" y2="-46397.4" gradientUnits="userSpaceOnUse">
<stop stop-color="white"/>
<stop offset="1" stop-color="#999999"/>
</linearGradient>
<linearGradient id="paint34_linear_1193_211" x1="365.879" y1="64521.7" x2="926.934" y2="-38156.1" gradientUnits="userSpaceOnUse">
<stop stop-color="white"/>
<stop offset="1" stop-color="#999999"/>
</linearGradient>
<linearGradient id="paint35_linear_1193_211" x1="314.681" y1="73891.1" x2="876.804" y2="-28982.3" gradientUnits="userSpaceOnUse">
<stop stop-color="white"/>
<stop offset="1" stop-color="#999999"/>
</linearGradient>
<linearGradient id="paint36_linear_1193_211" x1="257.363" y1="84379.3" x2="820.51" y2="-18681.4" gradientUnits="userSpaceOnUse">
<stop stop-color="white"/>
<stop offset="1" stop-color="#999999"/>
</linearGradient>
<linearGradient id="paint37_linear_1193_211" x1="718.103" y1="269.942" x2="718.393" y2="13.3786" gradientUnits="userSpaceOnUse">
<stop stop-color="white"/>
<stop offset="1" stop-color="#999999"/>
</linearGradient>
</defs>
</svg>
