<svg width="32" height="32" viewBox="0 0 32 32" fill="none" xmlns="http://www.w3.org/2000/svg">
<path d="M16 0.5C24.5604 0.5 31.5 7.43959 31.5 16C31.5 24.5604 24.5604 31.5 16 31.5C7.43959 31.5 0.5 24.5604 0.5 16C0.5 7.43959 7.43959 0.5 16 0.5Z" fill="#4E5976"/>
<path d="M16 0.5C24.5604 0.5 31.5 7.43959 31.5 16C31.5 24.5604 24.5604 31.5 16 31.5C7.43959 31.5 0.5 24.5604 0.5 16C0.5 7.43959 7.43959 0.5 16 0.5Z" stroke="url(#paint0_linear_644_1443)"/>
<path d="M18.7306 24.6681C18.7306 24.6681 18.7306 22.6388 18.7306 21.9862C18.7306 21.4231 18.8647 20.2341 18.2836 19.7514C19.5262 19.6352 20.5006 19.2329 21.4124 18.4105C22.3242 17.5881 22.7533 16.3455 22.7533 14.3878C22.7533 13.0468 22.5298 12.1529 21.8594 11.259C22.1186 10.5617 22.1633 9.47109 21.8594 8.57715C20.4648 8.57715 19.2044 9.53366 18.7306 9.91806C18.382 9.82866 17.5417 9.47109 16.0488 9.47109C14.5559 9.47109 13.7156 9.82866 13.367 9.91806C12.8932 9.53366 11.6327 8.57715 10.2382 8.57715C9.93424 9.47109 9.97894 10.5617 10.2382 11.259C9.56772 12.1529 9.34424 13.0468 9.34424 14.3878C9.34424 16.3455 9.77333 17.5881 10.6851 18.4105C11.597 19.2329 12.5714 19.6352 13.8139 19.7514C13.2329 20.2341 13.367 21.4231 13.367 21.9862C13.367 22.6388 13.367 24.6681 13.367 24.6681" stroke="#F8F8FF" stroke-width="1.5" stroke-linecap="round" stroke-linejoin="round"/>
<path d="M13.3671 22.8803C12.1066 22.8803 10.8283 22.3796 10.0684 21.8165C9.31751 21.2533 9.09402 20.3325 8.00342 19.7515" stroke="#F8F8FF" stroke-width="1.5" stroke-linecap="round" stroke-linejoin="round"/>
<defs>
<linearGradient id="paint0_linear_644_1443" x1="-15.3151" y1="42.7628" x2="29.675" y2="-15.004" gradientUnits="userSpaceOnUse">
<stop offset="0.0814927" stop-color="#AAD8FF"/>
<stop offset="0.363444" stop-color="#482CFF" stop-opacity="0"/>
<stop offset="1" stop-color="#AAD8FF"/>
</linearGradient>
</defs>
</svg>
