<svg width="763" height="159" viewBox="0 0 763 159" fill="none" xmlns="http://www.w3.org/2000/svg">
<path d="M49.82 115.39C48.24 115.39 46.97 114.11 46.97 112.54V39.53C46.97 37.95 48.25 36.68 49.82 36.68H60.32C61.9 36.68 63.17 37.96 63.17 39.53V99.65C63.17 101.23 64.45 102.5 66.02 102.5H99.45C101.03 102.5 102.3 103.78 102.3 105.35V112.54C102.3 114.12 101.02 115.39 99.45 115.39H49.82Z" fill="url(#paint0_linear_1056_30)"/>
<path d="M127.64 116.53C121.63 116.53 116.92 114.97 113.49 111.85C110.07 108.73 108.36 104.47 108.36 99.07C108.36 93.67 110.22 89.18 113.95 86.06C117.68 82.87 123.11 80.93 130.26 80.24L143.44 78.95C145.12 78.79 146.57 80.1 146.57 81.79V86.08C146.57 87.56 145.44 88.79 143.97 88.92L135.05 89.72C131.32 90.1 128.62 90.86 126.95 92C125.35 93.14 124.55 94.81 124.55 97.02V98.05C124.55 100.18 125.42 101.85 127.17 103.07C129 104.21 131.51 104.78 134.7 104.78C142.61 104.78 146.57 101.59 146.57 95.2V76.83C146.57 72.87 145.73 69.98 144.06 68.16C142.39 66.33 139.76 65.42 136.19 65.42C133.83 65.42 131.89 65.76 130.37 66.45C128.92 67.13 127.86 67.93 127.18 68.85C126.5 69.69 126.15 70.49 126.15 71.25C126.15 71.5 125.95 71.71 125.69 71.71H113.64C111.81 71.71 110.44 70 111.06 68.27C114.66 58.32 123.15 53.34 136.52 53.34C144.96 53.34 151.35 55.32 155.69 59.27C160.1 63.23 162.31 69.01 162.31 76.61V112.55C162.31 114.13 161.03 115.4 159.46 115.4H150.68C149.1 115.4 147.83 114.12 147.83 112.55V106.3C147.83 105.59 147.26 105.02 146.55 105.02C146.01 105.02 145.54 105.36 145.33 105.85C143.95 109.17 141.89 111.75 139.15 113.58C136.18 115.56 132.34 116.55 127.63 116.55L127.64 116.53Z" fill="url(#paint1_linear_1056_30)"/>
<path d="M179.93 115.39C178.35 115.39 177.08 114.11 177.08 112.54V57.32C177.08 55.74 178.36 54.47 179.93 54.47H188.71C190.29 54.47 191.56 55.75 191.56 57.32V64.03C191.56 64.74 192.13 65.31 192.84 65.31C193.37 65.31 193.85 64.98 194.05 64.48C195.49 61 197.55 58.31 200.23 56.41C203.12 54.36 206.81 53.33 211.3 53.33C217.61 53.33 222.4 55.23 225.67 59.03C228.94 62.83 230.58 68.39 230.58 75.69V112.54C230.58 114.12 229.3 115.39 227.73 115.39H217.58C216 115.39 214.73 114.11 214.73 112.54V78.66C214.73 74.1 213.86 70.75 212.11 68.62C210.36 66.49 207.58 65.43 203.78 65.43C199.98 65.43 197.28 66.49 195.45 68.62C193.7 70.75 192.83 74.1 192.83 78.66V112.54C192.83 114.12 191.55 115.39 189.98 115.39H179.93Z" fill="url(#paint2_linear_1056_30)"/>
<path d="M271.5 135.24C263.74 135.24 257.54 133.87 252.9 131.13C249.34 128.99 246.75 126 245.13 122.15C244.41 120.44 245.79 118.69 247.64 118.69H259.86C259.92 118.69 259.97 118.74 259.97 118.8C259.97 120.09 261 121.2 263.05 122.11C265.18 123.02 267.88 123.48 271.15 123.48C275.64 123.48 278.98 122.53 281.19 120.63C283.47 118.8 284.61 115.95 284.61 112.07C284.61 110.32 284.65 108.72 284.72 107.28C284.77 106.24 284.83 105.15 284.88 104.03C284.91 103.32 284.35 102.72 283.63 102.72C283.11 102.72 282.66 103.04 282.44 103.51C281.18 106.26 279.17 108.47 276.38 110.14C273.41 111.97 269.8 112.88 265.54 112.88C258.31 112.88 252.53 110.29 248.2 105.12C243.86 99.87 241.7 92.68 241.7 83.56C241.7 77.48 242.69 72.19 244.67 67.7C246.65 63.14 249.42 59.6 253 57.09C256.57 54.58 260.76 53.33 265.55 53.33C270.04 53.33 273.84 54.43 276.96 56.64C279.85 58.61 282.02 61.31 283.47 64.72C283.68 65.21 284.15 65.54 284.69 65.54C285.4 65.54 285.97 64.97 285.97 64.26V57.33C285.97 55.75 287.25 54.48 288.82 54.48H297.6C299.17 54.48 300.45 55.76 300.45 57.33V112.21C300.45 119.66 297.98 125.37 293.03 129.32C288.09 133.28 280.9 135.25 271.47 135.25L271.5 135.24ZM271.5 101.7C275.99 101.7 279.3 100.48 281.43 98.05C283.56 95.54 284.62 91.81 284.62 86.87V80.25C284.62 75.31 283.56 71.62 281.43 69.18C279.3 66.67 275.99 65.42 271.5 65.42C267.01 65.42 263.7 66.67 261.57 69.18C259.44 71.61 258.38 75.3 258.38 80.25V86.87C258.38 91.81 259.44 95.54 261.57 98.05C263.7 100.48 267.01 101.7 271.5 101.7Z" fill="url(#paint3_linear_1056_30)"/>
<path d="M319.32 115.39C317.74 115.39 316.47 114.11 316.47 112.54V39.53C316.47 37.95 317.75 36.68 319.32 36.68H351.49C359.86 36.68 366.17 38.85 370.43 43.18C374.77 47.44 376.93 53.52 376.93 61.43C376.93 69.34 374.8 75.01 370.54 79.34C366.28 83.6 360.01 85.73 351.72 85.73H335.52C333.95 85.73 332.67 87.01 332.67 88.58V112.54C332.67 114.12 331.39 115.39 329.82 115.39H319.32ZM350.35 73.64C356.97 73.64 360.28 70.14 360.28 63.14V59.6C360.28 52.6 356.97 49.1 350.35 49.1H335.52C333.95 49.1 332.67 50.38 332.67 51.95V70.77C332.67 72.35 333.95 73.62 335.52 73.62H350.35V73.64Z" fill="url(#paint4_linear_1056_30)"/>
<path d="M390.39 115.39C388.81 115.39 387.54 114.11 387.54 112.54V57.32C387.54 55.74 388.81 54.47 390.39 54.47H399.17C400.74 54.47 402.02 55.75 402.02 57.32V64.14C402.02 64.85 402.59 65.42 403.3 65.42C403.83 65.42 404.31 65.09 404.51 64.59C405.93 61.12 407.88 58.47 410.35 56.63C413.09 54.65 416.62 53.66 420.96 53.66H427.35C428.92 53.66 430.2 54.94 430.2 56.51V63.7C430.2 65.28 428.92 66.55 427.35 66.55H414.23C410.5 66.55 407.73 67.58 405.9 69.63C404.15 71.68 403.28 74.95 403.28 79.44V112.53C403.28 114.11 402 115.38 400.43 115.38H390.39V115.39Z" fill="url(#paint5_linear_1056_30)"/>
<path d="M517.04 115.39C510.5 115.39 507.23 112.12 507.23 105.58V39.98C507.23 38.4 508.51 37.13 510.08 37.13H520.23C521.8 37.13 523.08 38.41 523.08 39.98V101.24C523.08 102.82 524.36 104.09 525.93 104.09H536.54C538.11 104.09 539.39 105.37 539.39 106.94V112.53C539.39 114.11 538.11 115.38 536.54 115.38H517.03L517.04 115.39ZM498.56 65.77C496.99 65.77 495.71 64.49 495.71 62.92V57.33C495.71 55.75 496.99 54.48 498.56 54.48H536.55C538.12 54.48 539.4 55.76 539.4 57.33V62.92C539.4 64.5 538.12 65.77 536.55 65.77H498.56Z" fill="url(#paint6_linear_1056_30)"/>
<path d="M575.34 116.53C565.91 116.53 558.57 113.79 553.32 108.32C548.07 102.84 545.45 95.05 545.45 84.93C545.45 74.81 548.07 67.02 553.32 61.54C558.57 56.06 565.91 53.33 575.34 53.33C584.77 53.33 591.65 55.88 596.67 60.97C601.76 65.99 604.31 73.22 604.31 82.65V85.16C604.31 86.74 603.03 88.01 601.46 88.01H558.34C556.76 88.01 555.49 86.73 555.49 85.16V80.82C555.49 79.24 556.76 77.97 558.34 77.97H590.81C593.08 77.97 593.91 80.97 591.95 82.13L591.13 82.62C590 83.29 588.58 82.48 588.58 81.17C588.58 75.62 587.51 71.55 585.39 68.96C583.26 66.37 579.91 65.08 575.35 65.08C570.79 65.08 567.44 66.37 565.31 68.96C563.18 71.55 562.12 75.61 562.12 81.17V88.24C562.12 93.79 563.18 97.9 565.31 100.56C567.44 103.15 570.79 104.44 575.35 104.44C578.16 104.44 580.37 104.06 581.97 103.3C583.64 102.54 584.82 101.7 585.51 100.79C586.27 99.8 586.65 99.08 586.65 98.62C586.65 98.37 586.85 98.16 587.11 98.16H599.09C600.98 98.16 602.35 99.97 601.6 101.71C599.77 105.94 597 109.32 593.27 111.85C588.55 114.97 582.58 116.53 575.36 116.53H575.34Z" fill="url(#paint7_linear_1056_30)"/>
<path d="M642.51 116.53C633.15 116.53 625.86 113.79 620.61 108.32C615.44 102.84 612.85 95.05 612.85 84.93C612.85 74.81 615.43 66.94 620.61 61.54C625.86 56.06 633.16 53.33 642.51 53.33C650.34 53.33 656.7 55.27 661.57 59.15C665.66 62.35 668.46 66.72 669.97 72.28C670.43 73.98 669.08 75.58 667.31 75.58H655.86C655.23 75.58 654.72 75.07 654.72 74.44C654.72 73.22 654.3 71.93 653.47 70.56C652.71 69.19 651.42 68.01 649.59 67.02C647.84 65.96 645.48 65.42 642.52 65.42C638.11 65.42 634.84 66.71 632.71 69.3C630.58 71.89 629.52 75.95 629.52 81.51V88.36C629.52 93.91 630.58 97.98 632.71 100.57C634.84 103.16 638.11 104.45 642.52 104.45C645.49 104.45 647.85 103.96 649.59 102.97C651.42 101.91 652.71 100.61 653.47 99.09C654.31 97.57 654.72 96.12 654.72 94.75C654.72 93.99 655.33 93.38 656.09 93.38H667.52C669.26 93.38 670.6 94.92 670.2 96.61C668.8 102.51 666 107.18 661.79 110.61C656.92 114.57 650.5 116.54 642.51 116.54V116.53Z" fill="url(#paint8_linear_1056_30)"/>
<path d="M697.64 115.39C691.1 115.39 687.83 112.12 687.83 105.58V39.98C687.83 38.4 689.11 37.13 690.68 37.13H700.83C702.41 37.13 703.68 38.41 703.68 39.98V101.24C703.68 102.82 704.96 104.09 706.53 104.09H717.14C718.72 104.09 719.99 105.37 719.99 106.94V112.53C719.99 114.11 718.72 115.38 717.14 115.38H697.63L697.64 115.39ZM679.16 65.77C677.59 65.77 676.31 64.49 676.31 62.92V57.33C676.31 55.75 677.59 54.48 679.16 54.48H717.15C718.73 54.48 720 55.76 720 57.33V62.92C720 64.5 718.73 65.77 717.15 65.77H679.16Z" fill="url(#paint9_linear_1056_30)"/>
<path fill-rule="evenodd" clip-rule="evenodd" d="M465.15 115.49C479.75 108.5 489.84 93.59 489.84 76.32C489.84 74.14 489.66 71.9 489.37 69.9C489.07 67.89 487.51 66.31 485.5 66.02C478.05 64.94 471.51 61.08 466.96 55.51C465.15 53.29 461.72 53.29 459.91 55.51C455.37 61.05 448.86 64.91 441.44 66C439.43 66.3 437.88 67.82 437.58 69.89C437.28 71.96 437.12 74.07 437.12 76.22C437.12 93.58 447.31 108.55 462.03 115.5C463.02 115.97 464.17 115.96 465.16 115.5L465.15 115.49ZM461.94 67.74C462.3 66.26 464.41 66.24 464.76 67.72C466.4 74.62 471.79 80.02 478.69 81.67C480.17 82.02 480.16 84.14 478.68 84.49C471.76 86.15 466.32 91.54 464.62 98.45L464.57 98.67C464.21 100.14 462.12 100.12 461.78 98.64C460.18 91.68 454.74 86.24 447.78 84.65C446.31 84.31 446.29 82.23 447.75 81.86L447.99 81.8C454.88 80.09 460.26 74.64 461.94 67.74Z" fill="url(#paint10_linear_1056_30)"/>
<defs>
<linearGradient id="paint0_linear_1056_30" x1="46.97" y1="85.965" x2="720" y2="85.965" gradientUnits="userSpaceOnUse">
<stop stop-color="#879BFF"/>
<stop offset="1" stop-color="#4E36FF"/>
</linearGradient>
<linearGradient id="paint1_linear_1056_30" x1="46.97" y1="85.965" x2="720" y2="85.965" gradientUnits="userSpaceOnUse">
<stop stop-color="#879BFF"/>
<stop offset="1" stop-color="#4E36FF"/>
</linearGradient>
<linearGradient id="paint2_linear_1056_30" x1="46.97" y1="85.965" x2="720" y2="85.965" gradientUnits="userSpaceOnUse">
<stop stop-color="#879BFF"/>
<stop offset="1" stop-color="#4E36FF"/>
</linearGradient>
<linearGradient id="paint3_linear_1056_30" x1="46.97" y1="85.965" x2="720" y2="85.965" gradientUnits="userSpaceOnUse">
<stop stop-color="#879BFF"/>
<stop offset="1" stop-color="#4E36FF"/>
</linearGradient>
<linearGradient id="paint4_linear_1056_30" x1="46.97" y1="85.965" x2="720" y2="85.965" gradientUnits="userSpaceOnUse">
<stop stop-color="#879BFF"/>
<stop offset="1" stop-color="#4E36FF"/>
</linearGradient>
<linearGradient id="paint5_linear_1056_30" x1="46.97" y1="85.965" x2="720" y2="85.965" gradientUnits="userSpaceOnUse">
<stop stop-color="#879BFF"/>
<stop offset="1" stop-color="#4E36FF"/>
</linearGradient>
<linearGradient id="paint6_linear_1056_30" x1="46.97" y1="85.965" x2="720" y2="85.965" gradientUnits="userSpaceOnUse">
<stop stop-color="#879BFF"/>
<stop offset="1" stop-color="#4E36FF"/>
</linearGradient>
<linearGradient id="paint7_linear_1056_30" x1="46.97" y1="85.965" x2="720" y2="85.965" gradientUnits="userSpaceOnUse">
<stop stop-color="#879BFF"/>
<stop offset="1" stop-color="#4E36FF"/>
</linearGradient>
<linearGradient id="paint8_linear_1056_30" x1="46.97" y1="85.965" x2="720" y2="85.965" gradientUnits="userSpaceOnUse">
<stop stop-color="#879BFF"/>
<stop offset="1" stop-color="#4E36FF"/>
</linearGradient>
<linearGradient id="paint9_linear_1056_30" x1="46.97" y1="85.965" x2="720" y2="85.965" gradientUnits="userSpaceOnUse">
<stop stop-color="#879BFF"/>
<stop offset="1" stop-color="#4E36FF"/>
</linearGradient>
<linearGradient id="paint10_linear_1056_30" x1="46.97" y1="85.965" x2="720" y2="85.965" gradientUnits="userSpaceOnUse">
<stop stop-color="#879BFF"/>
<stop offset="1" stop-color="#4E36FF"/>
</linearGradient>
</defs>
</svg>
