<svg width="177" height="195" viewBox="0 0 177 195" fill="none" xmlns="http://www.w3.org/2000/svg">
<g clip-path="url(#clip0_1164_150)">
<path d="M131.84 28.6799C135.15 26.3199 139.2 24.9299 143.56 24.9299C154.79 24.9299 163.89 34.1199 163.89 45.4599C163.89 56.7999 154.79 65.9899 143.56 65.9899C135.38 65.9899 128.34 61.1199 125.11 54.0899" stroke="url(#paint0_linear_1164_150)" stroke-width="2" stroke-miterlimit="10"/>
<path d="M70 49.49C67.58 44.88 66.22 39.63 66.22 34.05C66.22 15.8 80.87 1 98.94 1C117.01 1 131.66 15.8 131.66 34.05C131.66 52.3 117.01 67.1 98.94 67.1C97.71 67.1 96.49 67.03 95.29 66.9" stroke="url(#paint1_linear_1164_150)" stroke-width="2" stroke-miterlimit="10"/>
<path d="M149.88 144.87C164.25 143.91 175.6 131.95 175.6 117.35V81.5399C175.6 75.2399 170.5 70.1399 164.2 70.1399H117.01" stroke="url(#paint2_linear_1164_150)" stroke-width="2" stroke-miterlimit="10"/>
<path d="M43.73 144.59C45.83 172.07 68.8 193.71 96.81 193.71C126.21 193.71 150.05 169.87 150.05 140.47V83.1999C150.05 75.9899 144.21 70.1499 137 70.1499H96.74" stroke="url(#paint3_linear_1164_150)" stroke-width="2" stroke-miterlimit="10"/>
<path d="M39.37 44.0501L12.14 59.1001C5.24999 62.9101 0.98999 70.0501 0.98999 77.7901V97.7001C0.98999 106.21 3.82999 114.51 9.15999 121.24C11.79 124.57 15.05 128.05 19.05 131.36C19.26 131.54 21.43 133.32 23.83 134.98C31.76 140.44 40.83 143.49 45.83 144.95C52.97 143.98 61.75 141.73 70.74 136.75C76.16 133.75 82.97 129.15 89.72 120.97C95.32 114.19 98.26 105.68 98.26 96.9701V78.2401C98.26 70.7401 94.26 63.7801 87.7 59.8901C79.92 55.2801 69.37 49.0201 61.49 44.3601C54.71 40.3501 46.26 40.2401 39.37 44.0501Z" fill="url(#paint4_linear_1164_150)"/>
<path d="M56.8051 84.2489C58.0286 83.0259 60.0124 83.0256 61.2358 84.2489C62.4593 85.4724 62.4593 87.4571 61.2358 88.6806L47.9438 101.972C46.7202 103.195 44.7366 103.195 43.5131 101.972L38.0141 96.4735C36.7908 95.2501 36.7909 93.2664 38.0141 92.0429C39.2376 90.8194 41.2222 90.8194 42.4457 92.0429L45.7279 95.3251L56.8051 84.2489Z" fill="white"/>
<path d="M39.37 44.0501L12.14 59.1001C5.24999 62.9101 0.98999 70.0501 0.98999 77.7901V97.7001C0.98999 106.21 3.82999 114.51 9.15999 121.24C11.79 124.57 15.05 128.05 19.05 131.36C19.26 131.54 21.43 133.32 23.83 134.98C31.76 140.44 40.83 143.49 45.83 144.95C52.97 143.98 61.75 141.73 70.74 136.75C76.16 133.75 82.97 129.15 89.72 120.97C95.32 114.19 98.26 105.68 98.26 96.9701V78.2401C98.26 70.7401 94.26 63.7801 87.7 59.8901C79.92 55.2801 69.37 49.0201 61.49 44.3601C54.71 40.3501 46.26 40.2401 39.37 44.0501Z" stroke="url(#paint5_linear_1164_150)" stroke-width="1.5665" stroke-miterlimit="10"/>
</g>
<defs>
<linearGradient id="paint0_linear_1164_150" x1="130.548" y1="31.2389" x2="158.299" y2="59.0139" gradientUnits="userSpaceOnUse">
<stop stop-color="#AAD8FF"/>
<stop offset="1" stop-color="#5543FF"/>
</linearGradient>
<linearGradient id="paint1_linear_1164_150" x1="75.3966" y1="11.1565" x2="120.02" y2="57.9721" gradientUnits="userSpaceOnUse">
<stop stop-color="#AAD8FF"/>
<stop offset="1" stop-color="#5543FF"/>
</linearGradient>
<linearGradient id="paint2_linear_1164_150" x1="124.969" y1="81.2329" x2="175.343" y2="122.968" gradientUnits="userSpaceOnUse">
<stop stop-color="#AAD8FF"/>
<stop offset="1" stop-color="#5543FF"/>
</linearGradient>
<linearGradient id="paint3_linear_1164_150" x1="58.1725" y1="88.4913" x2="142.558" y2="165.222" gradientUnits="userSpaceOnUse">
<stop stop-color="#AAD8FF"/>
<stop offset="1" stop-color="#5543FF"/>
</linearGradient>
<linearGradient id="paint4_linear_1164_150" x1="-45.5632" y1="179.821" x2="102.214" y2="1.80703" gradientUnits="userSpaceOnUse">
<stop offset="0.0814927" stop-color="#AAD8FF"/>
<stop offset="0.363444" stop-color="#482CFF" stop-opacity="0"/>
<stop offset="1" stop-color="#AAD8FF"/>
</linearGradient>
<linearGradient id="paint5_linear_1164_150" x1="-45.5632" y1="179.821" x2="102.214" y2="1.80703" gradientUnits="userSpaceOnUse">
<stop offset="0.0814927" stop-color="#AAD8FF"/>
<stop offset="0.363444" stop-color="#482CFF" stop-opacity="0"/>
<stop offset="1" stop-color="#AAD8FF"/>
</linearGradient>
<clipPath id="clip0_1164_150">
<rect width="176.6" height="194.7" fill="white"/>
</clipPath>
</defs>
</svg>
