<svg width="179" height="190" viewBox="0 0 179 190" fill="none" xmlns="http://www.w3.org/2000/svg">
<g clip-path="url(#clip0_458_12305)">
<path d="M27.7542 73.8345V87.6945C27.7542 115.544 42.6142 141.274 66.7242 155.194C80.9442 163.404 98.4542 163.404 112.664 155.194C136.784 141.274 151.634 115.534 151.634 87.6945V73.8345C151.634 65.9945 147.454 58.7545 140.664 54.8345L104.664 34.0545C95.4042 28.7045 83.9842 28.7045 74.7242 34.0545L38.7241 54.8345C31.9341 58.7545 27.7542 65.9945 27.7542 73.8345Z" fill="url(#paint0_linear_458_12305)" stroke="url(#paint1_linear_458_12305)" stroke-width="2" stroke-miterlimit="10"/>
<path d="M1.62524 64.5532V90.4432C1.62524 125.923 20.5552 158.703 51.2752 176.443L56.0452 179.193C76.8652 191.213 102.525 191.213 123.345 179.193L128.115 176.443C158.835 158.703 177.765 125.923 177.765 90.4432V64.5532C177.765 53.1232 171.665 42.5532 161.765 36.8432L109.005 6.37324C97.0552 -0.526758 82.3352 -0.526758 70.3852 6.37324L17.6252 36.8332C7.72524 42.5532 1.62524 53.1232 1.62524 64.5532Z" stroke="url(#paint2_linear_458_12305)" stroke-width="2" stroke-miterlimit="10"/>
<path d="M77.9377 98.1268L84.9577 105.147L101.928 88.1768" stroke="white" stroke-width="8" stroke-linecap="round" stroke-linejoin="round"/>
<g filter="url(#filter0_d_458_12305)">
<path d="M41.0002 23.4492C47.1669 19.9492 60.8002 12.1492 66.0002 8.94923C72.5002 4.94923 82.0002 -0.050773 93.0002 1.44923" stroke="url(#paint3_linear_458_12305)" stroke-width="2" shape-rendering="crispEdges"/>
</g>
</g>
<defs>
<filter id="filter0_d_458_12305" x="30.9066" y="-8.42324" width="71.8287" height="43.3421" filterUnits="userSpaceOnUse" color-interpolation-filters="sRGB">
<feFlood flood-opacity="0" result="BackgroundImageFix"/>
<feColorMatrix in="SourceAlpha" type="matrix" values="0 0 0 0 0 0 0 0 0 0 0 0 0 0 0 0 0 0 127 0" result="hardAlpha"/>
<feOffset dy="1"/>
<feGaussianBlur stdDeviation="4.8"/>
<feComposite in2="hardAlpha" operator="out"/>
<feColorMatrix type="matrix" values="0 0 0 0 1 0 0 0 0 1 0 0 0 0 1 0 0 0 0.52 0"/>
<feBlend mode="normal" in2="BackgroundImageFix" result="effect1_dropShadow_458_12305"/>
<feBlend mode="normal" in="SourceGraphic" in2="effect1_dropShadow_458_12305" result="shape"/>
</filter>
<linearGradient id="paint0_linear_458_12305" x1="-31.5345" y1="205.516" x2="155.431" y2="-20.9615" gradientUnits="userSpaceOnUse">
<stop offset="0.0814927" stop-color="#AAD8FF"/>
<stop offset="0.363444" stop-color="#482CFF" stop-opacity="0"/>
<stop offset="1" stop-color="#AAD8FF"/>
</linearGradient>
<linearGradient id="paint1_linear_458_12305" x1="89.6941" y1="162.345" x2="89.6941" y2="29.0345" gradientUnits="userSpaceOnUse">
<stop stop-color="#AAD8FF"/>
<stop offset="1" stop-color="#5543FF"/>
</linearGradient>
<linearGradient id="paint2_linear_458_12305" x1="16.0002" y1="45.6768" x2="161.5" y2="162.677" gradientUnits="userSpaceOnUse">
<stop stop-color="#AAD8FF"/>
<stop offset="1" stop-color="#5543FF"/>
</linearGradient>
<linearGradient id="paint3_linear_458_12305" x1="94.5002" y1="1.17676" x2="41.0002" y2="23.1768" gradientUnits="userSpaceOnUse">
<stop stop-color="white" stop-opacity="0"/>
<stop offset="0.533654" stop-color="white"/>
<stop offset="1" stop-color="white" stop-opacity="0"/>
</linearGradient>
<clipPath id="clip0_458_12305">
<rect width="178.14" height="189.01" fill="white" transform="translate(0.625244 0.204102)"/>
</clipPath>
</defs>
</svg>
