<svg width="32" height="32" viewBox="0 0 32 32" fill="none" xmlns="http://www.w3.org/2000/svg">
<path d="M16 0.5C24.5604 0.5 31.5 7.43959 31.5 16C31.5 24.5604 24.5604 31.5 16 31.5C7.43959 31.5 0.5 24.5604 0.5 16C0.5 7.43959 7.43959 0.5 16 0.5Z" fill="#4E5976"/>
<path d="M16 0.5C24.5604 0.5 31.5 7.43959 31.5 16C31.5 24.5604 24.5604 31.5 16 31.5C7.43959 31.5 0.5 24.5604 0.5 16C0.5 7.43959 7.43959 0.5 16 0.5Z" stroke="url(#paint0_linear_644_1458)"/>
<path d="M16.6518 14.6083L12.4231 8.67969C12.374 8.61081 12.3092 8.55466 12.2341 8.51592C12.1589 8.47719 12.0756 8.457 11.991 8.45703H9.75919C9.66191 8.45716 9.56654 8.48404 9.48352 8.53475C9.40051 8.58546 9.33304 8.65804 9.28852 8.74453C9.244 8.83102 9.22413 8.92809 9.2311 9.02512C9.23806 9.12215 9.27159 9.21539 9.32801 9.29464L14.7415 16.8843M16.6518 14.6083L22.0653 22.198C22.1217 22.2772 22.1552 22.3705 22.1622 22.4675C22.1691 22.5645 22.1493 22.6616 22.1048 22.7481C22.0602 22.8346 21.9928 22.9072 21.9098 22.9579C21.8267 23.0086 21.7314 23.0355 21.6341 23.0356H19.4022C19.3177 23.0356 19.2344 23.0154 19.1592 22.9767C19.084 22.938 19.0192 22.8818 18.9702 22.8129L14.7415 16.8843M16.6518 14.6083L21.8135 8.45703M14.7415 16.8843L9.57983 23.0356" stroke="#F8F8FF" stroke-width="1.5" stroke-linecap="round" stroke-linejoin="round"/>
<defs>
<linearGradient id="paint0_linear_644_1458" x1="-15.3151" y1="42.7628" x2="29.675" y2="-15.004" gradientUnits="userSpaceOnUse">
<stop offset="0.0814927" stop-color="#AAD8FF"/>
<stop offset="0.363444" stop-color="#482CFF" stop-opacity="0"/>
<stop offset="1" stop-color="#AAD8FF"/>
</linearGradient>
</defs>
</svg>
