<svg width="72" height="72" viewBox="0 0 72 72" fill="none" xmlns="http://www.w3.org/2000/svg">
<g opacity="0.7" clip-path="url(#clip0_2231_273)">
<path d="M13.8906 28.666V33.6131C13.8906 43.5536 19.1946 52.7374 27.8002 57.7058C32.8757 60.6362 39.1256 60.6362 44.1975 57.7058C52.8067 52.7374 58.1071 43.55 58.1071 33.6131V28.666C58.1071 25.8677 56.6151 23.2835 54.1916 21.8843L41.3421 14.4673C38.0369 12.5578 33.9608 12.5578 30.6556 14.4673L17.8061 21.8843C15.3826 23.2835 13.8906 25.8677 13.8906 28.666Z" fill="url(#paint0_linear_2231_273)"/>
<path d="M56.8226 28.892C56.8226 26.4048 55.4967 24.1076 53.3426 22.8639L40.866 15.6627C37.8559 13.9236 34.1435 13.9236 31.1334 15.6627L18.6568 22.8639C16.5027 24.1076 15.1768 26.4048 15.1768 28.892V33.6951C15.1768 43.1171 20.2043 51.8222 28.3609 56.5314C33.09 59.2617 38.9131 59.2615 43.6385 56.5314C51.7983 51.8223 56.8226 43.1138 56.8226 33.6951V28.892ZM58.1088 33.6951C58.1088 43.573 52.8398 52.706 44.2816 57.6451C39.1579 60.6052 32.8447 60.605 27.7179 57.6451C19.1633 52.7061 13.8906 43.5766 13.8906 33.6951V28.892C13.8906 25.9453 15.4617 23.2237 18.0138 21.7503L30.4903 14.549C33.8985 12.58 38.1009 12.58 41.5091 14.549L53.9857 21.7503C56.5377 23.2237 58.1088 25.9453 58.1088 28.892V33.6951Z" fill="url(#paint1_linear_2231_273)"/>
<path d="M66.7718 25.3534C66.7717 21.5103 64.721 17.9565 61.3929 16.0368H61.3921L42.5606 5.16099C38.5002 2.8165 33.4986 2.8165 29.4382 5.16099L10.6067 16.0333L10.6058 16.0325C7.27743 17.9559 5.22705 21.5105 5.227 25.3534V34.5941C5.227 47.0209 11.8571 58.5024 22.6166 64.7162H22.6174L24.3198 65.6985L25.002 66.0771C32.1011 69.8662 40.6783 69.7401 47.679 65.6985L49.3822 64.7162C60.1418 58.5024 66.7718 47.021 66.7718 34.5941V25.3534ZM68.0964 34.5941C68.0964 47.293 61.4273 59.0413 50.5646 65.5579L50.0437 65.864L48.3413 66.8455C40.7051 71.2541 31.2937 71.2541 23.6575 66.8455V66.8446L21.9551 65.864C10.7854 59.4138 3.90234 47.4946 3.90234 34.5941V25.3534C3.90239 21.0372 6.20604 17.0463 9.94436 14.8863V14.8855L28.7759 4.01399C33.2461 1.43284 38.7527 1.43284 43.2229 4.01399L62.0535 14.8889C65.7924 17.0454 68.0964 21.0372 68.0964 25.3534V34.5941Z" fill="url(#paint2_linear_2231_273)"/>
<path d="M39.4274 32.8489C39.9447 32.3316 40.7832 32.3316 41.3005 32.8489C41.8178 33.3662 41.8178 34.2047 41.3005 34.722L35.2438 40.7796C34.7265 41.2969 33.8871 41.2969 33.3698 40.7796L30.8645 38.2734C30.3473 37.7561 30.3472 36.9176 30.8645 36.4003C31.3818 35.883 32.2204 35.883 32.7377 36.4003L34.3064 37.9681L39.4274 32.8489Z" fill="white"/>
<g filter="url(#filter0_d_2231_273)">
<path d="M27.0793 4.75518C29.4218 3.31367 33.0452 1.37491 37.2988 1.95495L37.1798 2.83029L37.0599 3.70477C33.4613 3.21414 30.3031 4.84536 28.0055 6.25922C26.1332 7.4114 21.2509 10.2044 19.0546 11.4509L18.1836 9.9141C20.3896 8.66206 25.2395 5.88736 27.0793 4.75518Z" fill="url(#paint3_linear_2231_273)" shape-rendering="crispEdges"/>
</g>
</g>
<defs>
<filter id="filter0_d_2231_273" x="14.5466" y="-1.40853" width="26.3912" height="16.8756" filterUnits="userSpaceOnUse" color-interpolation-filters="sRGB">
<feFlood flood-opacity="0" result="BackgroundImageFix"/>
<feColorMatrix in="SourceAlpha" type="matrix" values="0 0 0 0 0 0 0 0 0 0 0 0 0 0 0 0 0 0 127 0" result="hardAlpha"/>
<feOffset dy="0.378854"/>
<feGaussianBlur stdDeviation="1.8185"/>
<feComposite in2="hardAlpha" operator="out"/>
<feColorMatrix type="matrix" values="0 0 0 0 1 0 0 0 0 1 0 0 0 0 1 0 0 0 0.52 0"/>
<feBlend mode="normal" in2="BackgroundImageFix" result="effect1_dropShadow_2231_273"/>
<feBlend mode="normal" in="SourceGraphic" in2="effect1_dropShadow_2231_273" result="shape"/>
</filter>
<linearGradient id="paint0_linear_2231_273" x1="-7.27129" y1="75.6672" x2="59.4623" y2="-5.16952" gradientUnits="userSpaceOnUse">
<stop offset="0.0814927" stop-color="#AAD8FF"/>
<stop offset="0.363444" stop-color="#482CFF" stop-opacity="0"/>
<stop offset="1" stop-color="#AAD8FF"/>
</linearGradient>
<linearGradient id="paint1_linear_2231_273" x1="-7.27209" y1="75.6032" x2="59.3328" y2="-5.21116" gradientUnits="userSpaceOnUse">
<stop offset="0.0814927" stop-color="#AAD8FF"/>
<stop offset="0.363444" stop-color="#482CFF" stop-opacity="0"/>
<stop offset="1" stop-color="#AAD8FF"/>
</linearGradient>
<linearGradient id="paint2_linear_2231_273" x1="9.69554" y1="18.616" x2="61.6288" y2="60.3768" gradientUnits="userSpaceOnUse">
<stop stop-color="#AAD8FF"/>
<stop offset="1" stop-color="#5543FF"/>
</linearGradient>
<linearGradient id="paint3_linear_2231_273" x1="37.7149" y1="2.73293" x2="18.6191" y2="10.5854" gradientUnits="userSpaceOnUse">
<stop stop-color="white" stop-opacity="0"/>
<stop offset="0.533654" stop-color="white"/>
<stop offset="1" stop-color="white" stop-opacity="0"/>
</linearGradient>
<clipPath id="clip0_2231_273">
<rect width="72" height="72" fill="white"/>
</clipPath>
</defs>
</svg>
