<svg width="603" height="425" viewBox="0 0 603 425" fill="none" xmlns="http://www.w3.org/2000/svg">
<g clip-path="url(#clip0_1182_261)">
<path d="M0.409467 244.405L0.000145679 265.703C-0.105486 271.315 1.30733 276.834 4.10657 281.706L73.4536 402.43C84.5185 421.681 108.246 429.577 128.646 420.783L578.2 226.976C596.408 219.133 606.351 199.34 601.809 180.049L595.859 162.192" fill="#3A4559"/>
<path d="M576.826 204.965L123.721 403.499C107.414 410.643 88.3341 404.318 79.5402 388.83L4.58155 256.856C-5.53265 239.058 1.86154 216.413 20.5319 208.002L475.262 3.07695C491.978 -4.46249 511.678 2.28471 520.261 18.4859L593.582 156.837C603.049 174.702 595.338 196.845 576.813 204.952L576.826 204.965Z" fill="#F1F2FF"/>
<path d="M61.8079 273.915C67.2333 273.915 71.6316 269.517 71.6316 264.091C71.6316 258.666 67.2333 254.268 61.8079 254.268C56.3824 254.268 51.9841 258.666 51.9841 264.091C51.9841 269.517 56.3824 273.915 61.8079 273.915Z" fill="url(#paint0_linear_1182_261)"/>
<path d="M91.1204 282.644C96.5458 282.644 100.944 278.245 100.944 272.82C100.944 267.394 96.5458 262.996 91.1204 262.996C85.6949 262.996 81.2966 267.394 81.2966 272.82C81.2966 278.245 85.6949 282.644 91.1204 282.644Z" fill="url(#paint1_linear_1182_261)"/>
<path d="M81.7983 308.761C87.2238 308.761 91.6221 304.362 91.6221 298.937C91.6221 293.511 87.2238 289.113 81.7983 289.113C76.3728 289.113 71.9746 293.511 71.9746 298.937C71.9746 304.362 76.3728 308.761 81.7983 308.761Z" fill="url(#paint2_linear_1182_261)"/>
<path d="M51.7859 300.376C57.2114 300.376 61.6096 295.978 61.6096 290.552C61.6096 285.127 57.2114 280.729 51.7859 280.729C46.3604 280.729 41.9622 285.127 41.9622 290.552C41.9622 295.978 46.3604 300.376 51.7859 300.376Z" fill="url(#paint3_linear_1182_261)"/>
<path d="M110.465 331.141C121.49 331.141 130.428 340.08 130.428 351.106C130.428 362.132 121.49 371.07 110.465 371.07C99.4388 371.07 90.5 362.132 90.4998 351.106C90.4998 340.08 99.4386 331.141 110.465 331.141Z" stroke="url(#paint4_linear_1182_261)" stroke-width="1.32039"/>
<path d="M497.564 82.6963C502.989 82.6963 507.388 78.298 507.388 72.8725C507.388 67.4471 502.989 63.0488 497.564 63.0488C492.138 63.0488 487.74 67.4471 487.74 72.8725C487.74 78.298 492.138 82.6963 497.564 82.6963Z" fill="url(#paint5_linear_1182_261)"/>
<path d="M526.876 91.4238C532.301 91.4238 536.7 87.0256 536.7 81.6001C536.7 76.1746 532.301 71.7764 526.876 71.7764C521.45 71.7764 517.052 76.1746 517.052 81.6001C517.052 87.0256 521.45 91.4238 526.876 91.4238Z" fill="url(#paint6_linear_1182_261)"/>
<path d="M517.541 117.528C522.967 117.528 527.365 113.13 527.365 107.704C527.365 102.279 522.967 97.8804 517.541 97.8804C512.116 97.8804 507.717 102.279 507.717 107.704C507.717 113.13 512.116 117.528 517.541 117.528Z" fill="url(#paint7_linear_1182_261)"/>
<path d="M487.541 109.144C492.967 109.144 497.365 104.745 497.365 99.3198C497.365 93.8943 492.967 89.4961 487.541 89.4961C482.116 89.4961 477.718 93.8943 477.718 99.3198C477.718 104.745 482.116 109.144 487.541 109.144Z" fill="url(#paint8_linear_1182_261)"/>
<path d="M546.22 180.498C557.611 180.498 566.845 171.264 566.845 159.873C566.845 148.482 557.611 139.249 546.22 139.249C534.83 139.249 525.596 148.482 525.596 159.873C525.596 171.264 534.83 180.498 546.22 180.498Z" fill="url(#paint9_linear_1182_261)"/>
<path d="M71.6313 183.337L179.428 379.23L528.976 225.959L418.723 28.5469L71.6313 183.337Z" fill="#1B2233"/>
<path d="M179.428 379.23L180.801 398.587L527.55 248.498L528.975 225.958L179.428 379.23Z" fill="#343A47"/>
</g>
<defs>
<linearGradient id="paint0_linear_1182_261" x1="45.2929" y1="239.277" x2="76.7663" y2="244.834" gradientUnits="userSpaceOnUse">
<stop stop-color="#AAD8FF"/>
<stop offset="1" stop-color="#482CFF"/>
</linearGradient>
<linearGradient id="paint1_linear_1182_261" x1="74.6054" y1="248.005" x2="106.079" y2="253.562" gradientUnits="userSpaceOnUse">
<stop stop-color="#AAD8FF"/>
<stop offset="1" stop-color="#482CFF"/>
</linearGradient>
<linearGradient id="paint2_linear_1182_261" x1="65.2833" y1="274.122" x2="96.7568" y2="279.679" gradientUnits="userSpaceOnUse">
<stop stop-color="#AAD8FF"/>
<stop offset="1" stop-color="#482CFF"/>
</linearGradient>
<linearGradient id="paint3_linear_1182_261" x1="35.2709" y1="265.738" x2="66.7443" y2="271.295" gradientUnits="userSpaceOnUse">
<stop stop-color="#AAD8FF"/>
<stop offset="1" stop-color="#482CFF"/>
</linearGradient>
<linearGradient id="paint4_linear_1182_261" x1="75.7915" y1="299.008" x2="141.869" y2="310.675" gradientUnits="userSpaceOnUse">
<stop stop-color="#AAD8FF"/>
<stop offset="1" stop-color="#482CFF"/>
</linearGradient>
<linearGradient id="paint5_linear_1182_261" x1="481.049" y1="48.0579" x2="512.522" y2="53.615" gradientUnits="userSpaceOnUse">
<stop stop-color="#AAD8FF"/>
<stop offset="1" stop-color="#482CFF"/>
</linearGradient>
<linearGradient id="paint6_linear_1182_261" x1="510.361" y1="56.7855" x2="541.834" y2="62.3425" gradientUnits="userSpaceOnUse">
<stop stop-color="#AAD8FF"/>
<stop offset="1" stop-color="#482CFF"/>
</linearGradient>
<linearGradient id="paint7_linear_1182_261" x1="501.026" y1="82.8895" x2="532.499" y2="88.4465" gradientUnits="userSpaceOnUse">
<stop stop-color="#AAD8FF"/>
<stop offset="1" stop-color="#482CFF"/>
</linearGradient>
<linearGradient id="paint8_linear_1182_261" x1="471.027" y1="74.5052" x2="502.5" y2="80.0623" gradientUnits="userSpaceOnUse">
<stop stop-color="#AAD8FF"/>
<stop offset="1" stop-color="#482CFF"/>
</linearGradient>
<linearGradient id="paint9_linear_1182_261" x1="511.548" y1="107.776" x2="577.625" y2="119.443" gradientUnits="userSpaceOnUse">
<stop stop-color="#AAD8FF"/>
<stop offset="1" stop-color="#482CFF"/>
</linearGradient>
<clipPath id="clip0_1182_261">
<rect width="602.891" height="424.348" fill="white"/>
</clipPath>
</defs>
</svg>
