<svg width="1440" height="285" viewBox="0 0 1440 285" fill="none" xmlns="http://www.w3.org/2000/svg">
<g opacity="0.4">
<path d="M1439.74 284.998L-0.277163 283.386L0.509053 282.836L402.554 0.904571L1037.54 1.61669L1037.77 1.77869L1439.74 284.998ZM2.59773 282.675L1436.86 284.282L1036.7 2.3266L403.398 1.61662L2.59773 282.675Z" fill="url(#paint0_linear_1193_209)"/>
<path d="M1367.11 284.379L1365.77 284.739L1004.74 2.11341L1006.08 1.75502L1367.11 284.379Z" fill="url(#paint1_linear_1193_209)"/>
<path d="M1295.28 284.315L1293.89 284.643L973.012 2.06276L974.394 1.73434L1295.28 284.315Z" fill="url(#paint2_linear_1193_209)"/>
<path d="M1223.44 284.251L1222.02 284.545L941.287 2.01035L942.704 1.71664L1223.44 284.251Z" fill="url(#paint3_linear_1193_209)"/>
<path d="M1151.6 284.189L1150.14 284.446L909.561 1.95702L911.013 1.70039L1151.6 284.189Z" fill="url(#paint4_linear_1193_209)"/>
<path d="M1079.75 284.129L1078.27 284.348L877.839 1.90249L879.323 1.68431L1079.75 284.129Z" fill="url(#paint5_linear_1193_209)"/>
<path d="M1007.91 284.069L1006.4 284.246L846.121 1.8467L847.629 1.66963L1007.91 284.069Z" fill="url(#paint6_linear_1193_209)"/>
<path d="M936.065 284.01L934.537 284.145L814.404 1.78872L815.933 1.65419L936.065 284.01Z" fill="url(#paint7_linear_1193_209)"/>
<path d="M864.216 283.95L862.672 284.042L782.688 1.73145L784.232 1.64225L864.216 283.95Z" fill="url(#paint8_linear_1193_209)"/>
<path d="M792.364 283.894L790.81 283.937L750.976 1.67261L752.528 1.62902L792.364 283.894Z" fill="url(#paint9_linear_1193_209)"/>
<path d="M718.955 283.827L720.512 283.828L720.831 1.60774L719.275 1.60598L718.955 283.827Z" fill="url(#paint10_linear_1193_209)"/>
<path d="M689.116 1.60342L648.65 283.778L647.095 283.731L687.561 1.55592L689.116 1.60342Z" fill="url(#paint11_linear_1193_209)"/>
<path d="M657.404 1.59274L576.789 283.722L575.244 283.629L655.861 1.49715L657.404 1.59274Z" fill="url(#paint12_linear_1193_209)"/>
<path d="M625.689 1.57697L504.925 283.663L503.395 283.523L624.16 1.44002L625.689 1.57697Z" fill="url(#paint13_linear_1193_209)"/>
<path d="M593.971 1.56343L433.056 283.603L431.548 283.422L592.464 1.38233L593.971 1.56343Z" fill="url(#paint14_linear_1193_209)"/>
<path d="M562.249 1.54866L361.187 283.543L359.706 283.32L560.771 1.3265L562.249 1.54866Z" fill="url(#paint15_linear_1193_209)"/>
<path d="M530.528 1.53332L289.316 283.482L287.865 283.221L529.078 1.27008L530.528 1.53332Z" fill="url(#paint16_linear_1193_209)"/>
<path d="M498.805 1.51477L217.44 283.419L216.024 283.123L497.386 1.21712L498.805 1.51477Z" fill="url(#paint17_linear_1193_209)"/>
<path d="M467.079 1.49522L145.564 283.356L144.184 283.025L465.699 1.16626L467.079 1.49522Z" fill="url(#paint18_linear_1193_209)"/>
<path d="M435.353 1.47595L73.6909 283.292L72.3464 282.931L434.009 1.11471L435.353 1.47595Z" fill="url(#paint19_linear_1193_209)"/>
<path d="M393.39 8.31594L1046.74 9.0551L1046.74 8.34105L393.391 7.60188L393.39 8.31594Z" fill="url(#paint20_linear_1193_209)"/>
<path d="M383.145 15.5158L1056.92 16.2781L1056.92 15.564L383.146 14.8017L383.145 15.5158Z" fill="url(#paint21_linear_1193_209)"/>
<path d="M372.298 23.1059L1067.8 23.8928L1067.8 23.1787L372.299 22.3919L372.298 23.1059Z" fill="url(#paint22_linear_1193_209)"/>
<path d="M360.678 31.2633L1079.36 32.0764L1079.36 31.3623L360.679 30.5493L360.678 31.2633Z" fill="url(#paint23_linear_1193_209)"/>
<path d="M348.292 39.9454L1091.75 40.7865L1091.75 40.0725L348.292 39.2314L348.292 39.9454Z" fill="url(#paint24_linear_1193_209)"/>
<path d="M335.007 49.2585L1105.01 50.1296L1105.01 49.4156L335.008 48.5444L335.007 49.2585Z" fill="url(#paint25_linear_1193_209)"/>
<path d="M320.741 59.1931L1119.26 60.2359L1119.26 59.5218L320.742 58.479L320.741 59.1931Z" fill="url(#paint26_linear_1193_209)"/>
<path d="M305.379 70.0291L1134.6 70.9673L1134.61 70.2532L305.38 69.3151L305.379 70.0291Z" fill="url(#paint27_linear_1193_209)"/>
<path d="M288.768 81.6899L1151.16 82.6656L1151.16 81.9515L288.769 80.9759L288.768 81.6899Z" fill="url(#paint28_linear_1193_209)"/>
<path d="M270.806 94.2714L1169.12 95.2877L1169.12 94.5737L270.807 93.5574L270.806 94.2714Z" fill="url(#paint29_linear_1193_209)"/>
<path d="M251.244 108.01L1188.61 109.07L1188.61 108.356L251.245 107.296L251.244 108.01Z" fill="url(#paint30_linear_1193_209)"/>
<path d="M229.937 122.946L1209.9 124.055L1209.9 123.341L229.938 122.232L229.937 122.946Z" fill="url(#paint31_linear_1193_209)"/>
<path d="M206.603 139.294L1233.22 140.456L1233.22 139.742L206.604 138.58L206.603 139.294Z" fill="url(#paint32_linear_1193_209)"/>
<path d="M180.922 157.302L1258.86 158.521L1258.86 157.807L180.923 156.588L180.922 157.302Z" fill="url(#paint33_linear_1193_209)"/>
<path d="M152.538 177.205L1287.19 178.488L1287.2 177.774L152.539 176.49L152.538 177.205Z" fill="url(#paint34_linear_1193_209)"/>
<path d="M121.005 199.318L1318.68 200.673L1318.68 199.959L121.006 198.604L121.005 199.318Z" fill="url(#paint35_linear_1193_209)"/>
<path d="M85.7584 224.032L1353.87 225.467L1353.87 224.753L85.7592 223.318L85.7584 224.032Z" fill="url(#paint36_linear_1193_209)"/>
<path d="M46.1046 251.843L1393.45 253.367L1393.45 252.653L46.1054 251.129L46.1046 251.843Z" fill="url(#paint37_linear_1193_209)"/>
</g>
<defs>
<linearGradient id="paint0_linear_1193_209" x1="610.86" y1="61.3657" x2="629.189" y2="174.103" gradientUnits="userSpaceOnUse">
<stop stop-color="white"/>
<stop offset="1" stop-color="#999999"/>
</linearGradient>
<linearGradient id="paint1_linear_1193_209" x1="571.021" y1="-120.166" x2="747.794" y2="462.363" gradientUnits="userSpaceOnUse">
<stop stop-color="white"/>
<stop offset="1" stop-color="#999999"/>
</linearGradient>
<linearGradient id="paint2_linear_1193_209" x1="557.136" y1="-90.161" x2="687.592" y2="441.411" gradientUnits="userSpaceOnUse">
<stop stop-color="white"/>
<stop offset="1" stop-color="#999999"/>
</linearGradient>
<linearGradient id="paint3_linear_1193_209" x1="540.557" y1="-66.3504" x2="637.512" y2="420.206" gradientUnits="userSpaceOnUse">
<stop stop-color="white"/>
<stop offset="1" stop-color="#999999"/>
</linearGradient>
<linearGradient id="paint4_linear_1193_209" x1="520.334" y1="-47.0159" x2="592.647" y2="400.195" gradientUnits="userSpaceOnUse">
<stop stop-color="white"/>
<stop offset="1" stop-color="#999999"/>
</linearGradient>
<linearGradient id="paint5_linear_1193_209" x1="495.113" y1="-31.021" x2="548.996" y2="381.855" gradientUnits="userSpaceOnUse">
<stop stop-color="white"/>
<stop offset="1" stop-color="#999999"/>
</linearGradient>
<linearGradient id="paint6_linear_1193_209" x1="462.715" y1="-17.6009" x2="502.615" y2="365.282" gradientUnits="userSpaceOnUse">
<stop stop-color="white"/>
<stop offset="1" stop-color="#999999"/>
</linearGradient>
<linearGradient id="paint7_linear_1193_209" x1="419.565" y1="-6.2125" x2="448.705" y2="350.347" gradientUnits="userSpaceOnUse">
<stop stop-color="white"/>
<stop offset="1" stop-color="#999999"/>
</linearGradient>
<linearGradient id="paint8_linear_1193_209" x1="359.206" y1="3.49551" x2="379.97" y2="336.86" gradientUnits="userSpaceOnUse">
<stop stop-color="white"/>
<stop offset="1" stop-color="#999999"/>
</linearGradient>
<linearGradient id="paint9_linear_1193_209" x1="268.686" y1="11.7661" x2="282.86" y2="324.581" gradientUnits="userSpaceOnUse">
<stop stop-color="white"/>
<stop offset="1" stop-color="#999999"/>
</linearGradient>
<linearGradient id="paint10_linear_1193_209" x1="694.941" y1="21.5307" x2="693.569" y2="272.48" gradientUnits="userSpaceOnUse">
<stop stop-color="white"/>
<stop offset="1" stop-color="#999999"/>
</linearGradient>
<linearGradient id="paint11_linear_1193_209" x1="-183.382" y1="23.8635" x2="-178.631" y2="301.99" gradientUnits="userSpaceOnUse">
<stop stop-color="white"/>
<stop offset="1" stop-color="#999999"/>
</linearGradient>
<linearGradient id="paint12_linear_1193_209" x1="-1086.5" y1="25.0446" x2="-1085.13" y2="288.44" gradientUnits="userSpaceOnUse">
<stop stop-color="white"/>
<stop offset="1" stop-color="#999999"/>
</linearGradient>
<linearGradient id="paint13_linear_1193_209" x1="-22666.4" y1="-87.3744" x2="-22667.6" y2="162.716" gradientUnits="userSpaceOnUse">
<stop stop-color="white"/>
<stop offset="1" stop-color="#999999"/>
</linearGradient>
<linearGradient id="paint14_linear_1193_209" x1="-959.437" y1="36.2077" x2="-958.266" y2="274.244" gradientUnits="userSpaceOnUse">
<stop stop-color="white"/>
<stop offset="1" stop-color="#999999"/>
</linearGradient>
<linearGradient id="paint15_linear_1193_209" x1="-150.628" y1="45.1381" x2="-147.532" y2="272.195" gradientUnits="userSpaceOnUse">
<stop stop-color="white"/>
<stop offset="1" stop-color="#999999"/>
</linearGradient>
<linearGradient id="paint16_linear_1193_209" x1="132.533" y1="50.7997" x2="137.218" y2="267.817" gradientUnits="userSpaceOnUse">
<stop stop-color="white"/>
<stop offset="1" stop-color="#999999"/>
</linearGradient>
<linearGradient id="paint17_linear_1193_209" x1="276.788" y1="55.3585" x2="282.786" y2="263.16" gradientUnits="userSpaceOnUse">
<stop stop-color="white"/>
<stop offset="1" stop-color="#999999"/>
</linearGradient>
<linearGradient id="paint18_linear_1193_209" x1="364.236" y1="59.3035" x2="371.323" y2="258.622" gradientUnits="userSpaceOnUse">
<stop stop-color="white"/>
<stop offset="1" stop-color="#999999"/>
</linearGradient>
<linearGradient id="paint19_linear_1193_209" x1="422.874" y1="62.8205" x2="430.863" y2="254.304" gradientUnits="userSpaceOnUse">
<stop stop-color="white"/>
<stop offset="1" stop-color="#999999"/>
</linearGradient>
<linearGradient id="paint20_linear_1193_209" x1="687.523" y1="6153.2" x2="135.458" y2="107186" gradientUnits="userSpaceOnUse">
<stop stop-color="white"/>
<stop offset="1" stop-color="#999999"/>
</linearGradient>
<linearGradient id="paint21_linear_1193_209" x1="703.73" y1="3203.14" x2="151.324" y2="104298" gradientUnits="userSpaceOnUse">
<stop stop-color="white"/>
<stop offset="1" stop-color="#999999"/>
</linearGradient>
<linearGradient id="paint22_linear_1193_209" x1="720.734" y1="78.7499" x2="167.955" y2="101242" gradientUnits="userSpaceOnUse">
<stop stop-color="white"/>
<stop offset="1" stop-color="#999999"/>
</linearGradient>
<linearGradient id="paint23_linear_1193_209" x1="739.104" y1="-3272.88" x2="186.075" y2="97936.1" gradientUnits="userSpaceOnUse">
<stop stop-color="white"/>
<stop offset="1" stop-color="#999999"/>
</linearGradient>
<linearGradient id="paint24_linear_1193_209" x1="758.637" y1="-6852.8" x2="205.211" y2="94428.8" gradientUnits="userSpaceOnUse">
<stop stop-color="white"/>
<stop offset="1" stop-color="#999999"/>
</linearGradient>
<linearGradient id="paint25_linear_1193_209" x1="779.628" y1="-10694.2" x2="225.794" y2="90662.1" gradientUnits="userSpaceOnUse">
<stop stop-color="white"/>
<stop offset="1" stop-color="#999999"/>
</linearGradient>
<linearGradient id="paint26_linear_1193_209" x1="802.626" y1="-14864.6" x2="248.338" y2="86574.8" gradientUnits="userSpaceOnUse">
<stop stop-color="white"/>
<stop offset="1" stop-color="#999999"/>
</linearGradient>
<linearGradient id="paint27_linear_1193_209" x1="826.561" y1="-19285" x2="271.82" y2="82237.4" gradientUnits="userSpaceOnUse">
<stop stop-color="white"/>
<stop offset="1" stop-color="#999999"/>
</linearGradient>
<linearGradient id="paint28_linear_1193_209" x1="853.01" y1="-24116.3" x2="297.775" y2="77496.3" gradientUnits="userSpaceOnUse">
<stop stop-color="white"/>
<stop offset="1" stop-color="#999999"/>
</linearGradient>
<linearGradient id="paint29_linear_1193_209" x1="881.564" y1="-29348.2" x2="325.718" y2="72376.5" gradientUnits="userSpaceOnUse">
<stop stop-color="white"/>
<stop offset="1" stop-color="#999999"/>
</linearGradient>
<linearGradient id="paint30_linear_1193_209" x1="912.827" y1="-35060.5" x2="356.402" y2="66770" gradientUnits="userSpaceOnUse">
<stop stop-color="white"/>
<stop offset="1" stop-color="#999999"/>
</linearGradient>
<linearGradient id="paint31_linear_1193_209" x1="946.878" y1="-41294.7" x2="389.784" y2="60658.2" gradientUnits="userSpaceOnUse">
<stop stop-color="white"/>
<stop offset="1" stop-color="#999999"/>
</linearGradient>
<linearGradient id="paint32_linear_1193_209" x1="984.2" y1="-48128.7" x2="426.465" y2="53941.5" gradientUnits="userSpaceOnUse">
<stop stop-color="white"/>
<stop offset="1" stop-color="#999999"/>
</linearGradient>
<linearGradient id="paint33_linear_1193_209" x1="1025.51" y1="-55688.1" x2="466.884" y2="46545.1" gradientUnits="userSpaceOnUse">
<stop stop-color="white"/>
<stop offset="1" stop-color="#999999"/>
</linearGradient>
<linearGradient id="paint34_linear_1193_209" x1="1071.2" y1="-64049.5" x2="511.788" y2="38327.8" gradientUnits="userSpaceOnUse">
<stop stop-color="white"/>
<stop offset="1" stop-color="#999999"/>
</linearGradient>
<linearGradient id="paint35_linear_1193_209" x1="1122.25" y1="-73391.6" x2="561.77" y2="29180.9" gradientUnits="userSpaceOnUse">
<stop stop-color="white"/>
<stop offset="1" stop-color="#999999"/>
</linearGradient>
<linearGradient id="paint36_linear_1193_209" x1="1179.4" y1="-83849.1" x2="617.9" y2="18910.2" gradientUnits="userSpaceOnUse">
<stop stop-color="white"/>
<stop offset="1" stop-color="#999999"/>
</linearGradient>
<linearGradient id="paint37_linear_1193_209" x1="720.008" y1="14.2357" x2="719.718" y2="270.049" gradientUnits="userSpaceOnUse">
<stop stop-color="white"/>
<stop offset="1" stop-color="#999999"/>
</linearGradient>
</defs>
</svg>
