<svg width="72" height="72" viewBox="0 0 72 72" fill="none" xmlns="http://www.w3.org/2000/svg">
<g opacity="0.7">
<path d="M58.4072 17.2871C58.4071 13.7652 55.5832 10.9238 52.1133 10.9238C50.7644 10.9239 49.5126 11.3537 48.4883 12.084L47.6172 10.8623C48.8865 9.95735 50.441 9.42387 52.1133 9.42383C56.4255 9.42383 59.9071 12.9507 59.9072 17.2871C59.9072 21.6236 56.4255 25.1504 52.1133 25.1504C48.9721 25.1503 46.2746 23.2799 45.0391 20.5908L45.7207 20.2773L46.4023 19.9648C47.4052 22.1471 49.5862 23.6503 52.1133 23.6504C55.5833 23.6504 58.4072 20.8091 58.4072 17.2871Z" fill="url(#paint0_linear_2231_302)"/>
<path d="M47.4551 14.543C47.4551 9.50686 43.4145 5.43555 38.4463 5.43555C33.4782 5.43563 29.4375 9.50691 29.4375 14.543C29.4375 16.0839 29.8123 17.5307 30.4785 18.7998C30.6709 19.1665 30.5298 19.62 30.1631 19.8125C29.7964 20.0046 29.3428 19.8627 29.1504 19.4961C28.3732 18.0154 27.9375 16.3303 27.9375 14.543C27.9375 8.69278 32.6355 3.93563 38.4463 3.93555C44.2571 3.93555 48.9551 8.69273 48.9551 14.543C48.955 20.3932 44.2571 25.1504 38.4463 25.1504C38.0512 25.1504 37.6605 25.1274 37.2773 25.0859C36.8655 25.0413 36.5677 24.6716 36.6123 24.2598C36.657 23.848 37.0268 23.5502 37.4385 23.5947C37.7709 23.6307 38.1079 23.6504 38.4463 23.6504C43.4144 23.6504 47.455 19.579 47.4551 14.543Z" fill="url(#paint1_linear_2231_302)"/>
<path d="M63.9297 42.9287V30.5205C63.9297 28.7518 62.4982 27.3203 60.7295 27.3203H44.3789V25.8203H60.7295C63.3266 25.8203 65.4297 27.9234 65.4297 30.5205V42.9287C65.4294 48.3846 61.1885 52.853 55.8184 53.2119L55.7686 52.4639L55.7178 51.7158C60.3054 51.4093 63.9294 47.5899 63.9297 42.9287Z" fill="url(#paint2_linear_2231_302)"/>
<path d="M19.0469 51.4826C19.7745 61.0042 27.6747 69.3869 37.38 69.3869C47.5669 69.3869 55.8273 61.1265 55.8273 50.9396V31.0959C55.8273 28.5977 53.8038 26.5742 51.3055 26.5742H37.3557" stroke="url(#paint3_linear_2231_302)" stroke-width="1.5" stroke-miterlimit="10" stroke-linecap="round"/>
<path d="M17.0015 16.2522L7.56652 21.4669C5.17918 22.787 3.70312 25.261 3.70312 27.9428V34.8415C3.70312 37.7902 4.68716 40.6661 6.53397 42.998C7.44525 44.1518 8.57481 45.3576 9.96078 46.5045C10.0335 46.5668 10.7854 47.1836 11.617 47.7588C14.3647 49.6506 17.5074 50.7074 19.2399 51.2133C21.7138 50.8772 24.756 50.0976 27.871 48.3721C29.749 47.3326 32.1086 45.7387 34.4474 42.9044C36.3878 40.5552 37.4065 37.6065 37.4065 34.5886V28.0988C37.4065 25.5001 36.0205 23.0885 33.7475 21.7406C31.0518 20.1433 27.3963 17.9742 24.6659 16.3596C22.3167 14.9702 19.3889 14.932 17.0015 16.2522Z" fill="url(#paint4_linear_2231_302)" stroke="url(#paint5_linear_2231_302)" stroke-width="1.5" stroke-miterlimit="10"/>
<path d="M23.0437 30.1812C23.4676 29.7574 24.155 29.7573 24.5789 30.1812C25.0028 30.6051 25.0028 31.2927 24.5789 31.7167L19.9733 36.3219C19.5493 36.7459 18.862 36.7459 18.4381 36.3219L16.5327 34.4169C16.1089 33.993 16.1089 33.3056 16.5327 32.8817C16.9567 32.4578 17.6443 32.4578 18.0682 32.8817L19.2055 34.019L23.0437 30.1812Z" fill="white"/>
</g>
<defs>
<linearGradient id="paint0_linear_2231_302" x1="47.605" y1="12.3599" x2="57.2205" y2="21.9837" gradientUnits="userSpaceOnUse">
<stop stop-color="#AAD8FF"/>
<stop offset="1" stop-color="#5543FF"/>
</linearGradient>
<linearGradient id="paint1_linear_2231_302" x1="31.4245" y1="7.71478" x2="44.7337" y2="21.6778" gradientUnits="userSpaceOnUse">
<stop stop-color="#AAD8FF"/>
<stop offset="1" stop-color="#5543FF"/>
</linearGradient>
<linearGradient id="paint2_linear_2231_302" x1="47.1366" y1="30.414" x2="64.5907" y2="44.8747" gradientUnits="userSpaceOnUse">
<stop stop-color="#AAD8FF"/>
<stop offset="1" stop-color="#5543FF"/>
</linearGradient>
<linearGradient id="paint3_linear_2231_302" x1="23.9925" y1="32.9294" x2="53.2314" y2="59.516" gradientUnits="userSpaceOnUse">
<stop stop-color="#AAD8FF"/>
<stop offset="1" stop-color="#5543FF"/>
</linearGradient>
<linearGradient id="paint4_linear_2231_302" x1="-12.4272" y1="63.2959" x2="38.7766" y2="1.61525" gradientUnits="userSpaceOnUse">
<stop offset="0.0814927" stop-color="#AAD8FF"/>
<stop offset="0.363444" stop-color="#482CFF" stop-opacity="0"/>
<stop offset="1" stop-color="#AAD8FF"/>
</linearGradient>
<linearGradient id="paint5_linear_2231_302" x1="20.5548" y1="51.4848" x2="20.5548" y2="15.0134" gradientUnits="userSpaceOnUse">
<stop stop-color="#AAD8FF"/>
<stop offset="1" stop-color="#5543FF"/>
</linearGradient>
</defs>
</svg>
