<svg width="32" height="32" viewBox="0 0 32 32" fill="none" xmlns="http://www.w3.org/2000/svg">
<path d="M16 0.5C24.5604 0.5 31.5 7.43959 31.5 16C31.5 24.5604 24.5604 31.5 16 31.5C7.43959 31.5 0.5 24.5604 0.5 16C0.5 7.43959 7.43959 0.5 16 0.5Z" fill="#4E5976"/>
<path d="M16 0.5C24.5604 0.5 31.5 7.43959 31.5 16C31.5 24.5604 24.5604 31.5 16 31.5C7.43959 31.5 0.5 24.5604 0.5 16C0.5 7.43959 7.43959 0.5 16 0.5Z" stroke="url(#paint0_linear_644_1430)"/>
<path d="M15.7805 12.7215C16.5856 11.8989 17.6338 11.3607 18.8532 11.3607C20.1338 11.3607 21.3619 11.8694 22.2674 12.7749C23.1729 13.6804 23.6816 14.9086 23.6816 16.1892V22.7734H21.9258V16.1892C21.9258 15.3743 21.6021 14.5927 21.0259 14.0165C20.4496 13.4402 19.6681 13.1165 18.8532 13.1165C18.0383 13.1165 17.2567 13.4402 16.6805 14.0165C16.1042 14.5927 15.7805 15.3743 15.7805 16.1892V22.7734H14.0247V11.7997H15.7805V12.7215ZM9.63521 10.0439C9.28596 10.0439 8.95101 9.90512 8.70406 9.65816C8.4571 9.41121 8.31836 9.07626 8.31836 8.72701C8.31836 8.37776 8.4571 8.04281 8.70406 7.79585C8.95101 7.5489 9.28596 7.41016 9.63521 7.41016C9.98446 7.41016 10.3194 7.5489 10.5664 7.79585C10.8133 8.04281 10.9521 8.37776 10.9521 8.72701C10.9521 9.07626 10.8133 9.41121 10.5664 9.65816C10.3194 9.90512 9.98446 10.0439 9.63521 10.0439ZM8.75731 11.7997H10.5131V22.7734H8.75731V11.7997Z" fill="#F8F8FF"/>
<defs>
<linearGradient id="paint0_linear_644_1430" x1="-15.3151" y1="42.7628" x2="29.675" y2="-15.004" gradientUnits="userSpaceOnUse">
<stop offset="0.0814927" stop-color="#AAD8FF"/>
<stop offset="0.363444" stop-color="#482CFF" stop-opacity="0"/>
<stop offset="1" stop-color="#AAD8FF"/>
</linearGradient>
</defs>
</svg>
