<?xml version="1.0" encoding="UTF-8"?>
<svg id="Layer_1" data-name="Layer 1" xmlns="http://www.w3.org/2000/svg" viewBox="0 0 762.89 158.78">
  <defs>
    <style>
      .cls-1 {
        fill-rule: evenodd;
      }

      .cls-1, .cls-2 {
        stroke-width: 0px;
      }
    </style>
  </defs>
  <path class="cls-2" d="M49.82,115.39c-1.58,0-2.85-1.28-2.85-2.85V39.53c0-1.58,1.28-2.85,2.85-2.85h10.5c1.58,0,2.85,1.28,2.85,2.85v60.12c0,1.58,1.28,2.85,2.85,2.85h33.43c1.58,0,2.85,1.28,2.85,2.85v7.19c0,1.58-1.28,2.85-2.85,2.85h-49.63Z"/>
  <path class="cls-2" d="M127.64,116.53c-6.01,0-10.72-1.56-14.15-4.68-3.42-3.12-5.13-7.38-5.13-12.78s1.86-9.89,5.59-13.01c3.73-3.19,9.16-5.13,16.31-5.82l13.18-1.29c1.68-.16,3.13,1.15,3.13,2.84v4.29c0,1.48-1.13,2.71-2.6,2.84l-8.92.8c-3.73.38-6.43,1.14-8.1,2.28-1.6,1.14-2.4,2.81-2.4,5.02v1.03c0,2.13.87,3.8,2.62,5.02,1.83,1.14,4.34,1.71,7.53,1.71,7.91,0,11.87-3.19,11.87-9.58v-18.37c0-3.96-.84-6.85-2.51-8.67-1.67-1.83-4.3-2.74-7.87-2.74-2.36,0-4.3.34-5.82,1.03-1.45.68-2.51,1.48-3.19,2.4-.68.84-1.03,1.64-1.03,2.4,0,.25-.2.46-.46.46h-12.05c-1.83,0-3.2-1.71-2.58-3.44,3.6-9.95,12.09-14.93,25.46-14.93,8.44,0,14.83,1.98,19.17,5.93,4.41,3.96,6.62,9.74,6.62,17.34v35.94c0,1.58-1.28,2.85-2.85,2.85h-8.78c-1.58,0-2.85-1.28-2.85-2.85v-6.25c0-.71-.57-1.28-1.28-1.28-.54,0-1.01.34-1.22.83-1.38,3.32-3.44,5.9-6.18,7.73-2.97,1.98-6.81,2.97-11.52,2.97Z"/>
  <path class="cls-2" d="M179.93,115.39c-1.58,0-2.85-1.28-2.85-2.85v-55.22c0-1.58,1.28-2.85,2.85-2.85h8.78c1.58,0,2.85,1.28,2.85,2.85v6.71c0,.71.57,1.28,1.28,1.28.53,0,1.01-.33,1.21-.83,1.44-3.48,3.5-6.17,6.18-8.07,2.89-2.05,6.58-3.08,11.07-3.08,6.31,0,11.1,1.9,14.37,5.7,3.27,3.8,4.91,9.36,4.91,16.66v36.85c0,1.58-1.28,2.85-2.85,2.85h-10.15c-1.58,0-2.85-1.28-2.85-2.85v-33.88c0-4.56-.87-7.91-2.62-10.04-1.75-2.13-4.53-3.19-8.33-3.19s-6.5,1.06-8.33,3.19c-1.75,2.13-2.62,5.48-2.62,10.04v33.88c0,1.58-1.28,2.85-2.85,2.85h-10.04Z"/>
  <path class="cls-2" d="M271.5,135.24c-7.76,0-13.96-1.37-18.6-4.11-3.56-2.14-6.15-5.13-7.77-8.98-.72-1.71.66-3.46,2.51-3.46h12.22c.06,0,.11.05.11.11,0,1.29,1.03,2.4,3.08,3.31,2.13.91,4.83,1.37,8.1,1.37,4.49,0,7.83-.95,10.04-2.85,2.28-1.83,3.42-4.68,3.42-8.56,0-1.75.04-3.35.11-4.79.05-1.04.11-2.13.16-3.25.03-.71-.53-1.31-1.25-1.31-.52,0-.97.32-1.19.79-1.26,2.75-3.27,4.96-6.06,6.63-2.97,1.83-6.58,2.74-10.84,2.74-7.23,0-13.01-2.59-17.34-7.76-4.34-5.25-6.5-12.44-6.5-21.56,0-6.08.99-11.37,2.97-15.86,1.98-4.56,4.75-8.1,8.33-10.61,3.57-2.51,7.76-3.76,12.55-3.76,4.49,0,8.29,1.1,11.41,3.31,2.89,1.97,5.06,4.67,6.51,8.08.21.49.68.82,1.22.82.71,0,1.28-.57,1.28-1.28v-6.93c0-1.58,1.28-2.85,2.85-2.85h8.78c1.57,0,2.85,1.28,2.85,2.85v54.88c0,7.45-2.47,13.16-7.42,17.11-4.94,3.96-12.13,5.93-21.56,5.93ZM271.5,101.7c4.49,0,7.8-1.22,9.93-3.65,2.13-2.51,3.19-6.24,3.19-11.18v-6.62c0-4.94-1.06-8.63-3.19-11.07-2.13-2.51-5.44-3.76-9.93-3.76s-7.8,1.25-9.93,3.76c-2.13,2.43-3.19,6.12-3.19,11.07v6.62c0,4.94,1.06,8.67,3.19,11.18,2.13,2.43,5.44,3.65,9.93,3.65Z"/>
  <path class="cls-2" d="M319.32,115.39c-1.58,0-2.85-1.28-2.85-2.85V39.53c0-1.58,1.28-2.85,2.85-2.85h32.17c8.37,0,14.68,2.17,18.94,6.5,4.34,4.26,6.5,10.34,6.5,18.25s-2.13,13.58-6.39,17.91c-4.26,4.26-10.53,6.39-18.82,6.39h-16.2c-1.57,0-2.85,1.28-2.85,2.85v23.96c0,1.58-1.28,2.85-2.85,2.85h-10.5ZM350.35,73.64c6.62,0,9.93-3.5,9.93-10.5v-3.54c0-7-3.31-10.5-9.93-10.5h-14.83c-1.57,0-2.85,1.28-2.85,2.85v18.82c0,1.58,1.28,2.85,2.85,2.85h14.83Z"/>
  <path class="cls-2" d="M390.39,115.39c-1.58,0-2.85-1.28-2.85-2.85v-55.22c0-1.58,1.27-2.85,2.85-2.85h8.78c1.57,0,2.85,1.28,2.85,2.85v6.82c0,.71.57,1.28,1.28,1.28.53,0,1.01-.33,1.21-.83,1.42-3.47,3.37-6.12,5.84-7.96,2.74-1.98,6.27-2.97,10.61-2.97h6.39c1.57,0,2.85,1.28,2.85,2.85v7.19c0,1.58-1.28,2.85-2.85,2.85h-13.12c-3.73,0-6.5,1.03-8.33,3.08-1.75,2.05-2.62,5.32-2.62,9.81v33.09c0,1.58-1.28,2.85-2.85,2.85h-10.04Z"/>
  <path class="cls-2" d="M517.04,115.39c-6.54,0-9.81-3.27-9.81-9.81V39.98c0-1.58,1.28-2.85,2.85-2.85h10.15c1.57,0,2.85,1.28,2.85,2.85v61.26c0,1.58,1.28,2.85,2.85,2.85h10.61c1.57,0,2.85,1.28,2.85,2.85v5.59c0,1.58-1.28,2.85-2.85,2.85h-19.51ZM498.56,65.77c-1.57,0-2.85-1.28-2.85-2.85v-5.59c0-1.58,1.28-2.85,2.85-2.85h37.99c1.57,0,2.85,1.28,2.85,2.85v5.59c0,1.58-1.28,2.85-2.85,2.85h-37.99Z"/>
  <path class="cls-2" d="M575.34,116.53c-9.43,0-16.77-2.74-22.02-8.21-5.25-5.48-7.87-13.27-7.87-23.39s2.62-17.91,7.87-23.39c5.25-5.48,12.59-8.21,22.02-8.21s16.31,2.55,21.33,7.64c5.09,5.02,7.64,12.25,7.64,21.68v2.51c0,1.58-1.28,2.85-2.85,2.85h-43.12c-1.58,0-2.85-1.28-2.85-2.85v-4.34c0-1.58,1.27-2.85,2.85-2.85h32.47c2.27,0,3.1,3,1.14,4.16l-.82.49c-1.13.67-2.55-.14-2.55-1.45,0-5.55-1.07-9.62-3.19-12.21-2.13-2.59-5.48-3.88-10.04-3.88s-7.91,1.29-10.04,3.88c-2.13,2.59-3.19,6.65-3.19,12.21v7.07c0,5.55,1.06,9.66,3.19,12.32,2.13,2.59,5.48,3.88,10.04,3.88,2.81,0,5.02-.38,6.62-1.14,1.67-.76,2.85-1.6,3.54-2.51.76-.99,1.14-1.71,1.14-2.17,0-.25.2-.46.46-.46h11.98c1.89,0,3.26,1.81,2.51,3.55-1.83,4.23-4.6,7.61-8.33,10.14-4.72,3.12-10.69,4.68-17.91,4.68Z"/>
  <path class="cls-2" d="M642.51,116.53c-9.36,0-16.65-2.74-21.9-8.21-5.17-5.48-7.76-13.27-7.76-23.39s2.58-17.99,7.76-23.39c5.25-5.48,12.55-8.21,21.9-8.21,7.83,0,14.19,1.94,19.06,5.82,4.09,3.2,6.89,7.57,8.4,13.13.46,1.7-.89,3.3-2.66,3.3h-11.45c-.63,0-1.14-.51-1.14-1.14,0-1.22-.42-2.51-1.25-3.88-.76-1.37-2.05-2.55-3.88-3.54-1.75-1.06-4.11-1.6-7.07-1.6-4.41,0-7.68,1.29-9.81,3.88-2.13,2.59-3.19,6.65-3.19,12.21v6.85c0,5.55,1.06,9.62,3.19,12.21,2.13,2.59,5.4,3.88,9.81,3.88,2.97,0,5.33-.49,7.07-1.48,1.83-1.06,3.12-2.36,3.88-3.88.84-1.52,1.25-2.97,1.25-4.34,0-.76.61-1.37,1.37-1.37h11.43c1.74,0,3.08,1.54,2.68,3.23-1.4,5.9-4.2,10.57-8.41,14-4.87,3.96-11.29,5.93-19.28,5.93Z"/>
  <path class="cls-2" d="M697.64,115.39c-6.54,0-9.81-3.27-9.81-9.81V39.98c0-1.58,1.28-2.85,2.85-2.85h10.15c1.58,0,2.85,1.28,2.85,2.85v61.26c0,1.58,1.28,2.85,2.85,2.85h10.61c1.58,0,2.85,1.28,2.85,2.85v5.59c0,1.58-1.27,2.85-2.85,2.85h-19.51ZM679.16,65.77c-1.57,0-2.85-1.28-2.85-2.85v-5.59c0-1.58,1.28-2.85,2.85-2.85h37.99c1.58,0,2.85,1.28,2.85,2.85v5.59c0,1.58-1.27,2.85-2.85,2.85h-37.99Z"/>
  <path class="cls-1" d="M465.15,115.49c14.6-6.99,24.69-21.9,24.69-39.17,0-2.18-.18-4.42-.47-6.42-.3-2.01-1.86-3.59-3.87-3.88-7.45-1.08-13.99-4.94-18.54-10.51-1.81-2.22-5.24-2.22-7.05,0-4.54,5.54-11.05,9.4-18.47,10.49-2.01.3-3.56,1.82-3.86,3.89-.3,2.07-.46,4.18-.46,6.33,0,17.36,10.19,32.33,24.91,39.28.99.47,2.14.46,3.13,0ZM461.94,67.74c.36-1.48,2.47-1.5,2.82-.02,1.64,6.9,7.03,12.3,13.93,13.95,1.48.35,1.47,2.47-.01,2.82-6.92,1.66-12.36,7.05-14.06,13.96l-.05.22c-.36,1.47-2.45,1.45-2.79-.03-1.6-6.96-7.04-12.4-14-13.99-1.47-.34-1.49-2.42-.03-2.79l.24-.06c6.89-1.71,12.27-7.16,13.95-14.06Z"/>
</svg>