<svg width="213" height="213" viewBox="0 0 213 213" fill="none" xmlns="http://www.w3.org/2000/svg">
<path d="M133.454 202.132H65.6348" stroke="url(#paint0_linear_1130_78803)" stroke-width="2" stroke-miterlimit="10"/>
<rect x="12.0994" y="20.6965" width="173.305" height="160.463" rx="20" stroke="url(#paint1_linear_1130_78803)" stroke-width="2" stroke-miterlimit="10"/>
<path d="M12.157 148.237H185.457" stroke="url(#paint2_linear_1130_78803)" stroke-width="2" stroke-miterlimit="10"/>
<circle cx="99.5735" cy="164.149" r="7.69554" stroke="url(#paint3_linear_1130_78803)" stroke-miterlimit="10"/>
<path d="M168.899 83.4774C190.403 83.4774 207.835 66.3035 207.835 45.1185C207.835 23.9334 190.403 6.75952 168.899 6.75952C147.396 6.75952 129.963 23.9334 129.963 45.1185C129.963 66.3035 147.396 83.4774 168.899 83.4774Z" fill="#F8F7FF"/>
<path d="M167.822 83.846C188.73 83.846 205.68 66.9865 205.68 46.1893C205.68 25.392 188.73 8.53247 167.822 8.53247C146.913 8.53247 129.963 25.392 129.963 46.1893C129.963 66.9865 146.913 83.846 167.822 83.846Z" fill="url(#paint4_linear_1130_78803)" stroke="url(#paint5_linear_1130_78803)" stroke-width="1.5988" stroke-miterlimit="10"/>
<path d="M162.415 45.9704V38.3729C162.415 35.0013 165.148 32.2681 168.52 32.2681H169.546C172.351 32.2681 174.625 34.5421 174.625 37.3472" stroke="white" stroke-width="2.01916"/>
<circle cx="168.899" cy="48.4076" r="9.56144" fill="white"/>
<path d="M168.899 47.1711C169.64 47.1711 170.241 47.7713 170.241 48.512C170.241 49.0215 169.956 49.4646 169.538 49.6917V50.7737C169.537 51.1262 169.251 51.4114 168.899 51.4114C168.547 51.4112 168.261 51.126 168.261 50.7737V49.6917C167.842 49.4647 167.558 49.0218 167.558 48.512C167.558 47.7713 168.158 47.1712 168.899 47.1711Z" fill="#C2C2FF"/>
<circle cx="2.05043" cy="2.05043" r="2.05043" transform="matrix(1 0 0 -1 29.1582 38.2598)" fill="url(#paint6_linear_1130_78803)"/>
<circle cx="2.05043" cy="2.05043" r="2.05043" transform="matrix(1 0 0 -1 37.259 38.2598)" fill="url(#paint7_linear_1130_78803)"/>
<circle cx="2.05043" cy="2.05043" r="2.05043" transform="matrix(1 0 0 -1 45.3599 38.2598)" fill="url(#paint8_linear_1130_78803)"/>
<defs>
<linearGradient id="paint0_linear_1130_78803" x1="107.128" y1="189.628" x2="106.504" y2="203.055" gradientUnits="userSpaceOnUse">
<stop stop-color="#AAD8FF"/>
<stop offset="1" stop-color="#5543FF"/>
</linearGradient>
<linearGradient id="paint1_linear_1130_78803" x1="118.131" y1="21.7865" x2="80.3747" y2="184.533" gradientUnits="userSpaceOnUse">
<stop stop-color="#AAD8FF"/>
<stop offset="1" stop-color="#5543FF"/>
</linearGradient>
<linearGradient id="paint2_linear_1130_78803" x1="183.833" y1="149.397" x2="184.006" y2="153.557" gradientUnits="userSpaceOnUse">
<stop stop-color="#5543FF"/>
<stop offset="1" stop-color="#AAD8FF"/>
</linearGradient>
<linearGradient id="paint3_linear_1130_78803" x1="84.5118" y1="177.022" x2="106.151" y2="149.237" gradientUnits="userSpaceOnUse">
<stop offset="0.0814927" stop-color="#AAD8FF"/>
<stop offset="0.363444" stop-color="#482CFF" stop-opacity="0"/>
<stop offset="1" stop-color="#AAD8FF"/>
</linearGradient>
<linearGradient id="paint4_linear_1130_78803" x1="93.7257" y1="109.177" x2="199.473" y2="-27.3271" gradientUnits="userSpaceOnUse">
<stop offset="0.0814927" stop-color="#AAD8FF"/>
<stop offset="0.363444" stop-color="#482CFF" stop-opacity="0"/>
<stop offset="1" stop-color="#AAD8FF"/>
</linearGradient>
<linearGradient id="paint5_linear_1130_78803" x1="114.948" y1="84.3868" x2="115.486" y2="7.98629" gradientUnits="userSpaceOnUse">
<stop stop-color="#AAD8FF"/>
<stop offset="1" stop-color="#5543FF"/>
</linearGradient>
<linearGradient id="paint6_linear_1130_78803" x1="-0.813222" y1="4.1303" x2="-0.783779" y2="-0.0297377" gradientUnits="userSpaceOnUse">
<stop stop-color="#AAD8FF"/>
<stop offset="1" stop-color="#5543FF"/>
</linearGradient>
<linearGradient id="paint7_linear_1130_78803" x1="-0.813222" y1="4.1303" x2="-0.783779" y2="-0.0297377" gradientUnits="userSpaceOnUse">
<stop stop-color="#AAD8FF"/>
<stop offset="1" stop-color="#5543FF"/>
</linearGradient>
<linearGradient id="paint8_linear_1130_78803" x1="-0.813222" y1="4.1303" x2="-0.783779" y2="-0.0297377" gradientUnits="userSpaceOnUse">
<stop stop-color="#AAD8FF"/>
<stop offset="1" stop-color="#5543FF"/>
</linearGradient>
</defs>
</svg>
