<svg width="189" height="189" viewBox="0 0 189 189" fill="none" xmlns="http://www.w3.org/2000/svg">
<g clip-path="url(#clip0_458_12325)">
<path d="M72.4633 10.6714L10.1585 72.9763C-1.84417 84.9789 -1.84417 104.439 10.1585 116.442L72.4633 178.747C84.466 190.749 103.926 190.749 115.929 178.747L178.234 116.442C190.236 104.439 190.236 84.9789 178.234 72.9763L115.929 10.6714C103.926 -1.33119 84.466 -1.33119 72.4633 10.6714Z" stroke="url(#paint0_linear_458_12325)" stroke-width="2" stroke-miterlimit="10"/>
<path d="M72.455 44.1058L43.5845 72.9763C31.5819 84.9789 31.5819 104.439 43.5845 116.442L72.455 145.312C84.4576 157.315 103.918 157.315 115.92 145.312L144.791 116.442C156.793 104.439 156.793 84.9789 144.791 72.9763L115.92 44.1058C103.918 32.1032 84.4576 32.1032 72.455 44.1058Z" fill="url(#paint1_linear_458_12325)" stroke="url(#paint2_linear_458_12325)" stroke-width="2" stroke-miterlimit="10"/>
<path d="M109.889 98.752H103.992" stroke="white" stroke-width="2" stroke-linecap="round" stroke-linejoin="round"/>
<path d="M78.9258 98.752H84.823" stroke="white" stroke-width="2" stroke-linecap="round" stroke-linejoin="round"/>
<path d="M78.9258 109.634C78.9258 109.634 80.962 104.467 86.6767 104.467" stroke="white" stroke-width="2" stroke-linecap="round" stroke-linejoin="round"/>
<path d="M109.888 109.634C109.888 109.634 107.851 104.467 102.137 104.467" stroke="white" stroke-width="2" stroke-linecap="round" stroke-linejoin="round"/>
<path d="M78.9258 88.4277C78.9258 88.4277 80.962 93.595 86.6767 93.595" stroke="white" stroke-width="2" stroke-linecap="round" stroke-linejoin="round"/>
<path d="M109.888 88.4277C109.888 88.4277 107.851 93.595 102.137 93.595" stroke="white" stroke-width="2" stroke-linecap="round" stroke-linejoin="round"/>
<path d="M87.2891 77.6426C87.2891 77.6426 89.5846 78.5358 90.6987 80.524" stroke="white" stroke-width="2" stroke-linecap="round" stroke-linejoin="round"/>
<path d="M101.503 77.6426C101.503 77.6426 99.2079 78.5358 98.0938 80.524" stroke="white" stroke-width="2" stroke-linecap="round" stroke-linejoin="round"/>
<path d="M106.471 98.7528C106.471 100.991 105.866 103.084 104.8 104.89C102.697 108.453 98.8164 110.855 94.3695 110.855C89.9226 110.855 86.0615 108.473 83.9581 104.919C82.892 103.113 82.2773 101.01 82.2773 98.7624C82.2773 96.707 82.7864 94.7765 83.6988 93.0765C84.4768 91.607 85.5525 90.3104 86.8491 89.2923C86.5418 88.4375 86.3689 87.5058 86.3689 86.5454C86.3689 83.6736 87.8768 81.1476 90.1531 79.7453C91.3729 78.977 92.8232 78.5352 94.3695 78.5352C95.9158 78.5352 97.395 78.9866 98.6243 79.7645C100.881 81.186 102.38 83.6832 102.38 86.5454C102.38 87.5058 102.207 88.4375 101.899 89.2923C103.196 90.32 104.281 91.6166 105.069 93.0957C105.972 94.7861 106.481 96.7166 106.481 98.7624L106.471 98.7528Z" fill="white"/>
<g filter="url(#filter0_d_458_12325)">
<path d="M28.0469 55.4549L42.4537 41.048L63.5838 19.918" stroke="url(#paint3_linear_458_12325)" stroke-width="2" shape-rendering="crispEdges"/>
</g>
</g>
<defs>
<filter id="filter0_d_458_12325" x="17.7398" y="10.6109" width="56.1512" height="56.1512" filterUnits="userSpaceOnUse" color-interpolation-filters="sRGB">
<feFlood flood-opacity="0" result="BackgroundImageFix"/>
<feColorMatrix in="SourceAlpha" type="matrix" values="0 0 0 0 0 0 0 0 0 0 0 0 0 0 0 0 0 0 127 0" result="hardAlpha"/>
<feOffset dy="1"/>
<feGaussianBlur stdDeviation="4.8"/>
<feComposite in2="hardAlpha" operator="out"/>
<feColorMatrix type="matrix" values="0 0 0 0 1 0 0 0 0 1 0 0 0 0 1 0 0 0 0.52 0"/>
<feBlend mode="normal" in2="BackgroundImageFix" result="effect1_dropShadow_458_12325"/>
<feBlend mode="normal" in="SourceGraphic" in2="effect1_dropShadow_458_12325" result="shape"/>
</filter>
<linearGradient id="paint0_linear_458_12325" x1="53.857" y1="30.7147" x2="133.575" y2="163.738" gradientUnits="userSpaceOnUse">
<stop stop-color="#AAD8FF"/>
<stop offset="1" stop-color="#5543FF"/>
</linearGradient>
<linearGradient id="paint1_linear_458_12325" x1="83.8971" y1="225.994" x2="55.0155" y2="-6.28783" gradientUnits="userSpaceOnUse">
<stop offset="0.0814927" stop-color="#AAD8FF"/>
<stop offset="0.363444" stop-color="#482CFF" stop-opacity="0"/>
<stop offset="1" stop-color="#AAD8FF"/>
</linearGradient>
<linearGradient id="paint2_linear_458_12325" x1="57.344" y1="131.559" x2="131.038" y2="57.8653" gradientUnits="userSpaceOnUse">
<stop stop-color="#AAD8FF"/>
<stop offset="1" stop-color="#5543FF"/>
</linearGradient>
<linearGradient id="paint3_linear_458_12325" x1="50.6176" y1="19.918" x2="50.6176" y2="45.8503" gradientUnits="userSpaceOnUse">
<stop stop-color="white" stop-opacity="0"/>
<stop offset="0.53" stop-color="white"/>
<stop offset="1" stop-color="white" stop-opacity="0"/>
</linearGradient>
<clipPath id="clip0_458_12325">
<rect width="188" height="188" fill="white" transform="translate(0.195312 0.708984)"/>
</clipPath>
</defs>
</svg>
