<svg width="212" height="210" viewBox="0 0 212 210" fill="none" xmlns="http://www.w3.org/2000/svg">
<path d="M186.178 84.468C186.178 80.8295 183.321 77.8583 179.728 77.676L179.377 77.6672H130.622C126.866 77.6673 123.821 80.7121 123.821 84.468V119.054C123.821 136.274 137.78 150.233 155 150.233C172.219 150.233 186.178 136.274 186.178 119.054V84.468ZM188.178 119.054C188.178 137.378 173.324 152.233 155 152.233C136.675 152.233 121.821 137.378 121.821 119.054V84.468C121.821 79.6075 125.761 75.6673 130.622 75.6672H179.377L179.831 75.679C184.481 75.9146 188.178 79.7593 188.178 84.468V119.054Z" fill="url(#paint0_linear_1115_78737)"/>
<path d="M115.326 87.8267C115.326 81.3553 120.572 76.1091 127.043 76.1091H149.855C156.326 76.1091 161.573 81.3553 161.573 87.8267V149.392C161.573 155.863 156.326 161.109 149.855 161.109H127.043C120.572 161.109 115.326 155.863 115.326 149.392V87.8267Z" fill="#F8F7FF"/>
<path d="M173.502 52.0955C173.502 41.8771 165.218 33.5935 154.999 33.5935C144.781 33.5937 136.498 41.8772 136.497 52.0955C136.497 62.3139 144.781 70.5982 154.999 70.5984C165.218 70.5984 173.502 62.314 173.502 52.0955ZM175.502 52.0955C175.502 63.4186 166.322 72.5984 154.999 72.5984C143.676 72.5982 134.497 63.4185 134.497 52.0955C134.498 40.7726 143.676 31.5937 154.999 31.5935C166.322 31.5935 175.502 40.7725 175.502 52.0955Z" fill="url(#paint1_linear_1115_78737)"/>
<path d="M56.0259 148.594V135.113H58.0259V148.594C58.0259 176.205 80.409 198.588 108.02 198.588H110.578C138.189 198.588 160.572 176.205 160.572 148.594V88.5657C160.572 82.5466 155.692 77.6672 149.673 77.6672L110.196 77.6672L109.591 75.8294L149.673 75.6672C156.797 75.6672 162.572 81.442 162.572 88.5657V148.594C162.572 177.31 139.293 200.588 110.578 200.588H108.02C79.3044 200.588 56.0259 177.31 56.0259 148.594Z" fill="url(#paint2_linear_1115_78737)"/>
<path d="M141.296 39.9175C141.296 57.4143 127.112 71.5983 109.615 71.5983C92.1185 71.5983 77.9346 57.4143 77.9346 39.9175C77.9346 22.4208 92.1185 8.23682 109.615 8.23682C127.112 8.23682 141.296 22.4208 141.296 39.9175Z" fill="#F8F7FF"/>
<path d="M140.296 39.9175C140.296 22.973 126.56 9.23682 109.615 9.23682C92.6708 9.23685 78.9346 22.973 78.9346 39.9175C78.9346 56.862 92.6708 70.5981 109.615 70.5981C126.56 70.5981 140.296 56.862 140.296 39.9175ZM142.296 39.9175C142.296 57.9665 127.664 72.5981 109.615 72.5981C91.5662 72.5981 76.9346 57.9665 76.9346 39.9175C76.9346 21.8685 91.5662 7.23685 109.615 7.23682C127.664 7.23682 142.296 21.8684 142.296 39.9175Z" fill="url(#paint3_linear_1115_78737)"/>
<path d="M57.3413 151.508L35.9351 128.74L84.7798 115.508L57.3413 151.508Z" fill="#F8F7FF"/>
<path d="M105.333 63.8697L79.9661 55.3181L86.6034 74.4687L105.333 84.2787V63.8697Z" fill="#F8F7FF"/>
<path d="M13.1296 82.6848V93.5406C13.1296 115.354 24.7687 135.507 43.6529 146.41C54.7907 152.84 68.5054 152.84 79.6354 146.41C98.5274 135.507 110.159 115.346 110.159 93.5406V82.6848C110.159 76.5441 106.885 70.8734 101.566 67.803L73.3694 51.5271C66.1165 47.3367 57.1718 47.3367 49.9189 51.5271L21.7219 67.803C16.4036 70.8734 13.1296 76.5441 13.1296 82.6848Z" fill="url(#paint4_linear_1115_78737)"/>
<path d="M109.376 82.6852C109.376 76.8243 106.25 71.4115 101.175 68.4811L72.9783 52.2057H72.9773C65.9669 48.1554 57.3207 48.1554 50.3103 52.2057L22.113 68.4811C17.0372 71.4115 13.9128 76.8244 13.9128 82.6852V93.5406C13.9128 115.074 25.4028 134.969 44.0447 145.732C54.9402 152.023 68.3565 152.022 79.2439 145.732L80.113 145.22C98.2494 134.346 109.376 114.73 109.376 93.5406V82.6852ZM110.942 93.5406C110.942 115.281 99.5269 135.407 80.9187 146.564L80.0271 147.088C68.6547 153.659 54.6414 153.659 43.2615 147.088C24.135 136.046 12.3464 115.634 12.3464 93.5406V82.6852C12.3464 76.2648 15.7694 70.3349 21.3298 67.1246H21.3308L49.5271 50.8492L50.2351 50.4557C57.5987 46.5229 66.5005 46.6541 73.7615 50.8492L101.958 67.1246C107.518 70.3349 110.942 76.2647 110.942 82.6852V93.5406Z" fill="url(#paint5_linear_1115_78737)"/>
<path d="M69.0114 91.7025C70.2349 90.4795 72.2187 90.4792 73.442 91.7025C74.6656 92.9261 74.6656 94.9107 73.442 96.1342L60.1501 109.425C58.9265 110.649 56.9429 110.649 55.7194 109.425L50.2204 103.927C48.9971 102.704 48.9972 100.72 50.2204 99.4965C51.4439 98.273 53.4285 98.273 54.652 99.4965L57.9342 102.779L69.0114 91.7025Z" fill="white"/>
<defs>
<linearGradient id="paint0_linear_1115_78737" x1="131.115" y1="87.3093" x2="182.896" y2="134.67" gradientUnits="userSpaceOnUse">
<stop stop-color="#AAD8FF"/>
<stop offset="1" stop-color="#5543FF"/>
</linearGradient>
<linearGradient id="paint1_linear_1115_78737" x1="140.524" y1="38.1603" x2="167.673" y2="66.9297" gradientUnits="userSpaceOnUse">
<stop stop-color="#AAD8FF"/>
<stop offset="1" stop-color="#5543FF"/>
</linearGradient>
<linearGradient id="paint2_linear_1115_78737" x1="70.499" y1="94.2106" x2="155.739" y2="171.037" gradientUnits="userSpaceOnUse">
<stop stop-color="#AAD8FF"/>
<stop offset="1" stop-color="#5543FF"/>
</linearGradient>
<linearGradient id="paint3_linear_1115_78737" x1="86.1001" y1="17.2798" x2="130.202" y2="64.0143" gradientUnits="userSpaceOnUse">
<stop stop-color="#AAD8FF"/>
<stop offset="1" stop-color="#5543FF"/>
</linearGradient>
<linearGradient id="paint4_linear_1115_78737" x1="-33.3082" y1="185.825" x2="113.132" y2="8.43577" gradientUnits="userSpaceOnUse">
<stop offset="0.0814927" stop-color="#AAD8FF"/>
<stop offset="0.363444" stop-color="#482CFF" stop-opacity="0"/>
<stop offset="1" stop-color="#AAD8FF"/>
</linearGradient>
<linearGradient id="paint5_linear_1115_78737" x1="-34.8413" y1="187.135" x2="113.804" y2="6.91265" gradientUnits="userSpaceOnUse">
<stop offset="0.0814927" stop-color="#AAD8FF"/>
<stop offset="0.363444" stop-color="#482CFF" stop-opacity="0"/>
<stop offset="1" stop-color="#AAD8FF"/>
</linearGradient>
</defs>
</svg>
